<?xml version="1.0" encoding="UTF-8" standalone="no"?>
<svg
   xmlns:dc="http://purl.org/dc/elements/1.1/"
   xmlns:cc="http://creativecommons.org/ns#"
   xmlns:rdf="http://www.w3.org/1999/02/22-rdf-syntax-ns#"
   xmlns:svg="http://www.w3.org/2000/svg"
   xmlns="http://www.w3.org/2000/svg"
   viewBox="0 0 133.33333 133.33333"
   height="133.33333"
   width="133.33333"
   xml:space="preserve"
   id="svg2"
   version="1.1"><metadata
     id="metadata8"><rdf:RDF><cc:Work
         rdf:about=""><dc:format>image/svg+xml</dc:format><dc:type
           rdf:resource="http://purl.org/dc/dcmitype/StillImage" /></cc:Work></rdf:RDF></metadata><defs
     id="defs6"><clipPath
       id="clipPath18"
       clipPathUnits="userSpaceOnUse"><path
         id="path16"
         d="M 0,100 H 100 V 0 H 0 Z" /></clipPath></defs><g
     transform="matrix(1.3333333,0,0,-1.3333333,0,133.33333)"
     id="g10"><g
       id="g12"><g
         clip-path="url(#clipPath18)"
         id="g14"><g
           transform="translate(55.55,27.55)"
           id="g20"><path
             id="path22"
             style="fill:#fcaf20;fill-opacity:1;fill-rule:nonzero;stroke:none"
             d="M 0,0 H -3.32 V 14.59 H -7.49 V 0 h -3.25 l -3.83,19.71 9.16,11 L 3.8,19.7 Z M 5.01,0 H 4.38 L 8.56,20.84 -5.41,37.5 -19.34,20.84 -15.13,0 h -0.69 c -1.16,0 -2.09,-0.93 -2.09,-2.08 0,-1.15 0.93,-2.08 2.09,-2.08 H 5.01 c 1.15,0 2.08,0.93 2.08,2.08 C 7.09,-0.93 6.16,0 5.01,0" /></g><g
           transform="translate(46.33,74.48)"
           id="g24"><path
             id="path26"
             style="fill:#8ac442;fill-opacity:1;fill-rule:nonzero;stroke:none"
             d="m 0,0 c -0.15,0 -0.31,0 -0.46,-0.02 -0.94,-0.02 -1.87,-0.16 -2.81,-0.3 l 0.38,-2.49 0.09,-0.63 c 0.26,0.04 0.52,0.09 0.78,0.13 0.48,0.07 0.99,0.14 1.56,0.16 0.25,0.02 0.51,0.03 0.78,0.03 z M 9.52,-0.16 9.05,-3.28 c 0.16,0 0.32,0 0.47,-0.02 0.9,-0.03 1.7,-0.19 2.5,-0.45 l 0.19,0.94 0.43,2.18 c -0.94,0.16 -2.03,0.31 -3.12,0.47 m -15.67,-2.65 -0.4,1.87 C -7.64,-1.1 -8.58,-1.41 -9.67,-1.72 l 0.35,-1.09 0.59,-1.87 c 0.93,0.31 1.87,0.46 2.81,0.78 z m 22.07,1.4 -0.37,-1.4 -0.41,-1.56 c 0.93,-0.31 1.87,-0.63 2.8,-0.94 l 0.93,2.5 0.17,0.47 c -1.1,0.31 -2.03,0.62 -3.12,0.93 m -28.71,-1.4 c -0.93,-0.31 -2.03,-0.78 -2.96,-1.25 l 1.4,-2.81 c 0.94,0.47 1.87,0.78 2.65,1.09 z M 22,-3.59 20.75,-6.4 c 0.94,-0.31 1.72,-0.78 2.65,-1.25 L 24.96,-5 c -0.93,0.47 -2.02,0.94 -2.96,1.41 m -40.4,-1.87 c -0.94,-0.63 -1.88,-1.1 -2.81,-1.72 l 1.56,-2.65 c 0.93,0.62 1.71,1.09 2.81,1.71 z M 27.62,-6.4 26.06,-9.05 c 0.78,-0.63 1.71,-1.09 2.49,-1.72 l 1.72,2.65 c -0.78,0.63 -1.72,1.1 -2.65,1.72 m -51.49,-2.65 c -0.78,-0.63 -1.71,-1.25 -2.49,-2.03 l 2.03,-2.34 c 0.78,0.62 1.56,1.25 2.34,1.87 z m 56.95,-1.25 -2.03,-2.34 c 0.78,-0.62 1.4,-1.4 2.18,-2.03 l 2.19,2.19 c -0.78,0.78 -1.56,1.56 -2.34,2.18 m -61.78,-3.12 c -0.78,-0.78 -1.56,-1.56 -2.19,-2.34 l 2.34,-2.03 c 0.63,0.78 1.25,1.56 2.03,2.19 z m 66.3,-1.4 -2.34,-2.03 c 0.63,-0.78 1.25,-1.56 1.87,-2.34 l 2.5,1.87 c -0.62,0.94 -1.25,1.72 -2.03,2.5 m -70.51,-3.44 c -0.63,-0.78 -1.25,-1.71 -1.88,-2.65 l 2.66,-1.72 c 0.46,0.94 1.09,1.72 1.71,2.5 z m 74.57,-1.56 -2.65,-1.71 c 0.46,-0.78 1.09,-1.56 1.56,-2.5 l 2.8,1.4 c -0.46,0.94 -1.09,1.88 -1.71,2.81 m -78.16,-3.9 c -0.47,-1.09 -0.94,-2.03 -1.41,-2.96 l 2.81,-1.25 c 0.47,0.94 0.94,1.87 1.41,2.81 z m 81.28,-1.56 -2.81,-1.4 c 0.47,-0.94 0.94,-1.87 1.25,-2.81 l 2.81,1.25 c -0.32,0.93 -0.78,2.03 -1.25,2.96 m -83.93,-4.21 c -0.32,-1.09 -0.63,-2.03 -0.94,-3.12 l 2.96,-0.94 c 0.32,0.94 0.63,1.88 0.94,2.97 z m 86.42,-1.87 -2.96,-0.94 c 0.31,-1.09 0.47,-2.03 0.78,-2.96 l 3.12,0.78 c -0.31,1.09 -0.62,2.03 -0.94,3.12 m -88.14,-4.53 c -0.31,-0.93 -0.47,-2.02 -0.62,-3.12 l 3.12,-0.46 c 0.15,1.09 0.31,2.02 0.62,2.96 z m 89.8,-3.58 c -0.09,0.57 -0.17,1.14 -0.25,1.71 l -3.12,-0.47 c 0.13,-0.39 0.21,-0.81 0.26,-1.24 0.08,-0.58 0.12,-1.18 0.21,-1.72 l 3.12,0.16 c -0.08,0.52 -0.15,1.04 -0.22,1.56 m -90.74,-2.66 c -0.03,-0.21 -0.05,-0.41 -0.07,-0.62 h 3.18 c 0.01,0.16 0.01,0.32 0.01,0.47 z" /></g><path
           id="path28"
           style="fill:#ffffff;fill-opacity:1;fill-rule:nonzero;stroke:none"
           d="m 96.88,26.27 h -5.46 v 5.46 h 5.46 z m -7.02,-1.56 h 8.58 v 8.58 h -8.58 z" /><path
           id="path30"
           style="fill:#ffffff;fill-opacity:1;fill-rule:nonzero;stroke:none"
           d="m 96.88,70.42 h -5.46 v 5.46 h 5.46 z m -7.02,-1.56 h 8.58 v 8.58 h -8.58 z" /><path
           id="path32"
           style="fill:#ffffff;fill-opacity:1;fill-rule:nonzero;stroke:none"
           d="M 8.74,70.42 H 3.28 v 5.46 H 8.74 Z M 1.72,68.86 h 8.58 v 8.58 H 1.72 Z" /><path
           id="path34"
           style="fill:#ffffff;fill-opacity:1;fill-rule:nonzero;stroke:none"
           d="m 52.73,70.42 h -5.46 v 5.46 h 5.46 z m -6.86,-1.56 h 8.58 v 8.58 h -8.58 z" /><path
           id="path36"
           style="fill:#ffffff;fill-opacity:1;fill-rule:nonzero;stroke:none"
           d="M 8.74,26.27 H 3.28 v 5.46 H 8.74 Z M 1.72,24.71 h 8.58 v 8.58 H 1.72 Z" /><path
           id="path38"
           style="fill:#8ac442;fill-opacity:1;fill-rule:nonzero;stroke:none"
           d="m 96.88,26.27 h -5.46 v 5.46 h 5.46 z M 88.3,23.31 H 100 v 11.7 H 88.3 Z" /><path
           id="path40"
           style="fill:#0c72ba;fill-opacity:1;fill-rule:nonzero;stroke:none"
           d="m 96.88,70.42 h -5.46 v 5.46 h 5.46 z m -44.15,0 h -5.46 v 5.46 h 5.46 z m -43.99,0 H 3.28 v 5.46 H 8.74 Z M 88.3,79 V 74.79 H 55.85 V 79 H 44.15 V 74.79 H 11.86 V 79 H 0.16 V 67.3 h 11.7 v 4.37 H 44.31 V 67.5 h 11.54 v 4.17 H 88.3 V 67.46 H 100 V 79 Z" /><path
           id="path42"
           style="fill:#8ac442;fill-opacity:1;fill-rule:nonzero;stroke:none"
           d="M 8.74,26.27 H 3.28 v 5.46 H 8.74 Z M 0.16,23.31 h 11.7 v 11.7 H 0.16 Z" /></g></g></g></svg>