<?xml version="1.0" encoding="UTF-8" standalone="no"?>
<svg
   xmlns:dc="http://purl.org/dc/elements/1.1/"
   xmlns:cc="http://creativecommons.org/ns#"
   xmlns:rdf="http://www.w3.org/1999/02/22-rdf-syntax-ns#"
   xmlns:svg="http://www.w3.org/2000/svg"
   xmlns="http://www.w3.org/2000/svg"
   viewBox="0 0 133.33333 133.33333"
   height="133.33333"
   width="133.33333"
   xml:space="preserve"
   id="svg2"
   version="1.1"><metadata
     id="metadata8"><rdf:RDF><cc:Work
         rdf:about=""><dc:format>image/svg+xml</dc:format><dc:type
           rdf:resource="http://purl.org/dc/dcmitype/StillImage" /></cc:Work></rdf:RDF></metadata><defs
     id="defs6"><clipPath
       id="clipPath18"
       clipPathUnits="userSpaceOnUse"><path
         id="path16"
         d="M 0,100 H 100 V 0 H 0 Z" /></clipPath></defs><g
     transform="matrix(1.3333333,0,0,-1.3333333,0,133.33333)"
     id="g10"><g
       id="g12"><g
         clip-path="url(#clipPath18)"
         id="g14"><g
           transform="translate(88.9778,57.2553)"
           id="g20"><path
             id="path22"
             style="fill:#0c72ba;fill-opacity:1;fill-rule:nonzero;stroke:none"
             d="m 0,0 -8.615,2.874 -5.466,1.821 V -1.064 -44.645 H -63.887 V -1.064 4.695 L -69.35,2.874 -77.968,0 l -5.726,15.745 25.06,14.32 h 5.727 c 1.786,-6.001 7.343,-10.377 13.923,-10.377 6.581,0 12.138,4.376 13.923,10.377 h 5.727 L 5.727,15.745 Z m -18.231,34.216 h -6.225 -2.077 -2.073 c 0,-5.723 -4.657,-10.377 -10.378,-10.377 -5.721,0 -10.376,4.654 -10.376,10.377 h -2.076 -2.075 -6.225 l -29.055,-16.603 8.302,-22.828 12.452,4.151 v -47.733 h 58.109 v 47.733 l 12.451,-4.151 8.299,22.828 z" /></g><g
           transform="translate(47.0172,44.875)"
           id="g24"><path
             id="path26"
             style="fill:#0e73b8;fill-opacity:1;fill-rule:nonzero;stroke:none"
             d="m 0,0 c 0,1.387 -0.457,2.647 -1.497,3.577 -0.914,0.914 -2.19,1.497 -3.577,1.497 -1.387,0 -2.648,-0.457 -3.577,-1.497 -0.914,-0.914 -1.497,-2.19 -1.497,-3.577 0,-1.387 0.457,-2.647 1.497,-3.577 0.914,-0.914 2.19,-1.497 3.577,-1.497 1.387,0 2.647,0.457 3.577,1.497 C -0.473,-2.537 0,-1.371 0,0 M 0,12.559 H 2.537 V 0 c 0,-2.08 -0.693,-3.924 -2.19,-5.295 -1.497,-1.497 -3.231,-2.19 -5.295,-2.19 -2.08,0 -3.924,0.693 -5.295,2.19 -1.387,1.497 -2.19,3.231 -2.19,5.295 0,2.064 0.693,3.924 2.19,5.295 1.497,1.497 3.231,2.19 5.295,2.19 1.954,0 3.577,-0.693 5.074,-1.954 v 7.028 z" /></g><g
           transform="translate(51.159,57.4344)"
           id="g28"><path
             id="path30"
             style="fill:#8ac442;fill-opacity:1;fill-rule:nonzero;stroke:none"
             d="m 0,0 h 2.537 v -6.918 c 1.387,1.261 3.104,1.954 5.074,1.954 2.08,0 3.924,-0.693 5.295,-2.19 1.497,-1.497 2.191,-3.231 2.191,-5.295 v -7.485 h -2.538 v 7.485 c 0,1.387 -0.457,2.647 -1.497,3.577 -0.914,0.914 -2.19,1.497 -3.577,1.497 -1.387,0 -2.647,-0.457 -3.577,-1.497 -0.914,-0.914 -1.497,-2.19 -1.497,-3.577 v -7.485 h -2.427 l 0,19.934 z" /></g></g></g></g></svg>