<?xml version="1.0" encoding="UTF-8" standalone="no"?>
<svg
   xmlns:dc="http://purl.org/dc/elements/1.1/"
   xmlns:cc="http://creativecommons.org/ns#"
   xmlns:rdf="http://www.w3.org/1999/02/22-rdf-syntax-ns#"
   xmlns:svg="http://www.w3.org/2000/svg"
   xmlns="http://www.w3.org/2000/svg"
   viewBox="0 0 133.33333 133.33333"
   height="133.33333"
   width="133.33333"
   xml:space="preserve"
   id="svg2"
   version="1.1"><metadata
     id="metadata8"><rdf:RDF><cc:Work
         rdf:about=""><dc:format>image/svg+xml</dc:format><dc:type
           rdf:resource="http://purl.org/dc/dcmitype/StillImage" /></cc:Work></rdf:RDF></metadata><defs
     id="defs6"><clipPath
       id="clipPath18"
       clipPathUnits="userSpaceOnUse"><path
         id="path16"
         d="M 0,100 H 100 V 0 H 0 Z" /></clipPath></defs><g
     transform="matrix(1.3333333,0,0,-1.3333333,0,133.33333)"
     id="g10"><g
       id="g12"><g
         clip-path="url(#clipPath18)"
         id="g14"><g
           transform="translate(50.1071,25.9653)"
           id="g20"><path
             id="path22"
             style="fill:#0c72ba;fill-opacity:1;fill-rule:nonzero;stroke:none"
             d="M 0,0 H -45.733 V 4.158 H 0 45.733 V 0 Z M 37.353,8.317 H 4.093 V 20.79 h 33.26 z m 8.38,54.049 V 8.317 H 41.512 V 24.946 H -0.067 V 8.317 H -45.733 V 62.366 Z M -11.56,-16.63 -9.075,-4.173 9.069,-4.169 11.56,-16.63 Z m 59.376,83.154 h -95.632 c -1.145,0 -2.077,-0.93 -2.077,-2.078 V -2.078 c 0,-1.148 0.932,-2.079 2.077,-2.079 h 34.502 l -2.488,-12.473 h -0.831 c -1.145,0 -2.077,-0.932 -2.077,-2.08 0,-1.148 0.932,-2.078 2.077,-2.078 h 33.266 c 1.145,0 2.077,0.93 2.077,2.078 0,1.148 -0.932,2.08 -2.077,2.08 h -0.834 l -2.491,12.473 h 34.508 c 1.145,0 2.077,0.931 2.077,2.079 v 66.524 c 0,1.148 -0.932,2.078 -2.077,2.078" /></g><g
           transform="translate(52.1839,28.0452)"
           id="g24"><path
             id="path26"
             style="fill:#fcaf20;fill-opacity:1;fill-rule:nonzero;stroke:none"
             d="m 0,0 c 0,1.148 -0.929,2.078 -2.077,2.078 -1.148,0 -2.077,-0.93 -2.077,-2.078 0,-1.148 0.929,-2.08 2.077,-2.08 C -0.929,-2.08 0,-1.148 0,0" /></g><g
           transform="translate(42.1835,50.9117)"
           id="g28"><path
             id="path30"
             style="fill:#fcaf20;fill-opacity:1;fill-rule:nonzero;stroke:none"
             d="m 0,0 h -29.106 c -1.148,0 -2.077,-0.93 -2.077,-2.078 0,-1.148 0.929,-2.079 2.077,-2.079 H 0 c 1.145,0 2.077,0.931 2.077,2.079 C 2.077,-0.93 1.145,0 0,0" /></g><g
           transform="translate(23.0839,67.5432)"
           id="g32"><path
             id="path34"
             style="fill:#fcaf20;fill-opacity:1;fill-rule:nonzero;stroke:none"
             d="m 0,0 h 54.046 c 1.151,0 2.083,0.93 2.083,2.078 0,1.148 -0.931,2.08 -2.083,2.08 L 0,4.158 c -1.151,0 -2.083,-0.932 -2.083,-2.08 C -2.083,0.93 -1.151,0 0,0" /></g><path
           id="path36"
           style="fill:#8ac442;fill-opacity:1;fill-rule:nonzero;stroke:none"
           d="M 87.527,59.228 H 12.688 v 20.788 h 74.839 z m 4.16,24.947 H 8.528 V 55.07 h 83.159 z" /><g
           transform="translate(42.1835,42.5967)"
           id="g38"><path
             id="path40"
             style="fill:#fcaf20;fill-opacity:1;fill-rule:nonzero;stroke:none"
             d="m 0,0 h -29.106 c -1.148,0 -2.077,-0.93 -2.077,-2.078 0,-1.15 0.929,-2.08 2.077,-2.08 H 0 c 1.145,0 2.077,0.93 2.077,2.08 C 2.077,-0.93 1.145,0 0,0" /></g></g></g></g></svg>