<?xml version="1.0" encoding="utf-8"?>
<!-- Generator: Adobe Illustrator 24.0.1, SVG Export Plug-In . SVG Version: 6.00 Build 0)  -->
<svg version="1.1" id="Layer_1" xmlns="http://www.w3.org/2000/svg" xmlns:xlink="http://www.w3.org/1999/xlink" x="0px" y="0px"
	 viewBox="0 0 300 86" style="enable-background:new 0 0 300 86;" xml:space="preserve">
<style type="text/css">
	.st0{fill:#C2C1C1;}
	.st1{fill-rule:evenodd;clip-rule:evenodd;fill:#FFFFFF;}
</style>
<g id="layer1" transform="translate(-446.7987,535.9143)">
	<path id="path25030" class="st0" d="M517.9-453.9h79.6l78.1-78.1H517.9V-453.9"/>
	<path id="path25032" class="st1" d="M611.4-517.4H596v36.9l-13.5-36.9h-13.3l-11.7,30.9c-1.3-7.8-9.3-10.5-15.7-12.5
		c-4-1.4-8.6-3.4-8.4-5.5c0-1.8,2.2-3.5,6.8-3.2c3.1,0.2,5.9,0.5,11.5,3.1l5.5-9.4c-5.3-2.5-12-4.2-17.6-4.2l0,0
		c-6.8,0-12.4,2.1-15.7,5.6c-2.2,2.5-3.7,5.5-3.7,9.1c0,4.7,1.8,8.2,5.3,10.8c3.4,2.3,7.1,3.7,10.8,4.8c4.4,1.4,7.7,2.5,7.7,5
		c0,0.9-0.3,1.7-0.9,2.5c-1.3,1.1-2.8,1.5-5.3,1.5c-4.4,0.1-7.4-0.6-12.6-3.6l-4.9,9.5c5.3,2.9,11.5,4.7,17.6,4.7h0.9
		c5.3-0.1,9.9-1.6,13.3-4.5c0.3-0.2,0.3-0.4,0.6-0.5l-1.5,4.2h14.1l2.2-7.2c2.5,0.8,5.3,1.3,8.4,1.3s5.5-0.5,8-1.3l2.5,7.1H609
		v-14.9h5.3c12,0,19.2-6.2,19.2-16.5C633.3-512.1,626.6-517.4,611.4-517.4z M575.6-485.7c-1.8,0-3.4-0.4-4.9-0.9l4.9-15.5l0,0
		l4.9,15.5C579.1-486,577.5-485.7,575.6-485.7z M612.3-494.6H609v-12.5h3.4c4.6,0,8.4,1.5,8.4,6.2
		C620.7-496.2,617-494.6,612.3-494.6"/>
	<path id="path25034" class="st0" d="M617-458.9c0-2.4,1.8-4.2,4-4.2s4,1.8,4,4.2c0,2.5-1.8,4.3-4,4.3S617-456.4,617-458.9z
		 M621.1-453.8c2.8,0,5.3-2.2,5.3-5.1s-2.5-5-5.3-5s-5.3,2.1-5.3,5S618.2-453.8,621.1-453.8z M620.1-458.5h0.9l1.5,2.5h0.9l-1.5-2.5
		c0.6-0.1,1.5-0.5,1.5-1.6c0-1.2-0.9-1.6-2.2-1.6h-2.2v5.8h0.9L620.1-458.5L620.1-458.5L620.1-458.5z M620.1-459.3v-1.8h1.3
		c0.3,0,1.3,0.2,1.3,0.9c0,0.9-0.9,0.9-1.5,0.9H620.1"/>
</g>
</svg>
