<svg width="79" height="58" viewBox="0 0 79 58" fill="none" xmlns="http://www.w3.org/2000/svg">
<path fill-rule="evenodd" clip-rule="evenodd" d="M14.0866 48.8041C13.7966 47.3941 12.6367 47.0241 11.3567 46.9041C7.18666 46.5141 6.44665 49.6341 6.44665 50.9541C6.44665 53.2041 7.10665 55.074 11.1967 55.074C11.9467 55.074 14.0266 54.2941 14.0266 53.074H19.9066C19.6666 56.824 13.3867 57.7241 10.6467 57.7241C4.96666 57.7241 0.0966355 56.6641 0.336635 51.0541C0.496635 47.0541 4.27665 44.2441 11.7866 44.4141C15.9666 44.5141 19.9867 45.8241 20.0067 48.8541L14.0866 48.8041ZM72.9666 48.8041C72.6766 47.3941 71.5167 47.0241 70.2367 46.9041C66.0667 46.5141 65.3266 49.6341 65.3266 50.9541C65.3266 53.2041 65.9866 55.074 70.0766 55.074C70.8266 55.074 72.9066 54.2941 72.9066 53.074H78.7866C78.5566 56.824 72.2666 57.7241 69.5266 57.7241C63.8366 57.7241 58.9766 56.6641 59.2166 51.0541C59.3766 47.0541 63.1566 44.2441 70.6666 44.4141C74.8466 44.5141 78.8666 45.8241 78.8866 48.8541L72.9666 48.8041ZM21.0567 44.6341H28.6867L35.2267 53.784V44.6341H40.1167V57.3341H32.8067L25.9967 48.1941V57.3441H21.1067L21.0567 44.6341ZM41.6566 44.6341H50.9267C55.3767 44.6341 57.9967 45.8841 57.9967 47.7641C57.9967 48.8741 56.8966 50.2541 54.4566 50.6541C57.3966 50.8241 58.4566 52.6541 58.4566 53.8141C58.4566 56.0541 55.9067 57.2941 50.9167 57.2941H41.6267L41.6566 44.6341ZM47.0166 49.574H48.5567C50.9267 49.574 52.1767 49.3841 52.1767 48.4041C52.1767 47.4241 51.1767 46.9941 49.0067 46.9941H47.0067V49.574H47.0166ZM47.0166 54.6741H48.5567C51.4067 54.6741 52.4566 54.3741 52.4566 53.394C52.4566 52.414 51.1367 51.9841 49.0067 51.9841H47.0067V54.6741H47.0166Z" fill="#035C67"/>
<path fill-rule="evenodd" clip-rule="evenodd" d="M65.9769 25.1941L44.127 39.7741L51.4869 22.2741L54.9769 14.1341C55.6514 12.8512 56.6553 11.7711 57.8856 11.0048C59.1159 10.2385 60.5281 9.81371 61.9769 9.77414C63.3363 9.7676 64.6749 10.1076 65.8665 10.7619C67.058 11.4163 68.0631 12.3635 68.7869 13.5141C69.5906 14.8304 70.0233 16.3396 70.0391 17.8817C70.055 19.4239 69.6534 20.9416 68.877 22.2741C68.1253 23.4397 67.1373 24.4345 65.9769 25.1941Z" fill="#035C67"/>
<path fill-rule="evenodd" clip-rule="evenodd" d="M55.0967 11.364L44.2968 36.904L43.8168 34.114L40.5668 13.194C40.4916 12.6031 40.5839 12.003 40.8332 11.4619C41.0825 10.9209 41.4787 10.4608 41.9768 10.134L43.5267 9.19403C43.6167 8.86403 43.1667 8.76403 42.9567 8.65403H39.9567C39.8241 7.1956 40.0942 5.72873 40.7379 4.41328C41.3815 3.09784 42.3738 1.98431 43.6068 1.19403C44.6761 0.527012 45.8899 0.126226 47.1462 0.0253052C48.4025 -0.0756156 49.6646 0.126274 50.8267 0.614031C52.2614 1.24649 53.4862 2.2747 54.3576 3.5782C55.229 4.8817 55.7108 6.40652 55.7468 7.97403C55.7506 9.12887 55.5298 10.2734 55.0967 11.344V11.364Z" fill="#035C67"/>
<path fill-rule="evenodd" clip-rule="evenodd" d="M34.3458 36.994L23.7058 11.394C23.1399 9.98086 22.962 8.4421 23.1906 6.93708C23.4191 5.43207 24.0459 4.0155 25.0058 2.83404C25.9811 1.69871 27.2553 0.859743 28.6837 0.412503C30.112 -0.0347374 31.6371 -0.0723134 33.0858 0.304043C34.4323 0.700655 35.6549 1.4355 36.6369 2.43854C37.619 3.44158 38.3277 4.6794 38.6958 6.03404C38.9441 7.09851 39.0117 8.19716 38.8958 9.28404L34.3458 36.994Z" fill="#035C67"/>
<path fill-rule="evenodd" clip-rule="evenodd" d="M11.6168 24.194C10.5595 23.3094 9.74367 22.1713 9.2453 20.886C8.74692 19.6008 8.58228 18.2102 8.76675 16.844C8.99169 15.3459 9.61806 13.9367 10.5794 12.7658C11.5407 11.595 12.8011 10.7063 14.2267 10.194C15.6237 9.74867 17.1169 9.69982 18.5399 10.0529C19.963 10.4061 21.2601 11.1473 22.2867 12.194C23.0907 13.0027 23.7233 13.9652 24.1467 15.024L34.4268 39.904L11.6168 24.194Z" fill="#035C67"/>
<path fill-rule="evenodd" clip-rule="evenodd" d="M9.27698 42.4141C7.91998 42.2813 6.62038 41.7999 5.50427 41.0167C4.38817 40.2335 3.49346 39.1751 2.90698 37.9441C2.25262 36.555 1.9835 35.0156 2.12775 33.4869C2.272 31.9582 2.82434 30.4963 3.72699 29.2541C4.61924 28.0939 5.8127 27.2007 7.17743 26.6717C8.54216 26.1427 10.0259 25.9983 11.467 26.2541C12.5766 26.4657 13.6314 26.9012 14.567 27.5341L36.677 42.4041L9.27698 42.4141Z" fill="#035C67"/>
<path fill-rule="evenodd" clip-rule="evenodd" d="M69.3257 42.4141C70.6827 42.2813 71.9823 41.7999 73.0984 41.0167C74.2146 40.2335 75.1093 39.1751 75.6957 37.9441C76.3522 36.5556 76.6225 35.0158 76.4782 33.4866C76.3339 31.9575 75.7804 30.4954 74.8758 29.2541C73.9835 28.0939 72.79 27.2007 71.4253 26.6717C70.0606 26.1427 68.5769 25.9983 67.1357 26.2541C66.0292 26.4656 64.9777 26.9012 64.0458 27.5341L41.9258 42.4141H69.3257Z" fill="#035C67"/>
</svg>
