<svg width="124" height="23" viewBox="0 0 124 23" fill="none" xmlns="http://www.w3.org/2000/svg">
<path d="M25.9395 7.33C26.67 7.3351 27.3696 7.62554 27.889 8.13932C28.4084 8.6531 28.7063 9.34954 28.7194 10.08C28.7253 10.6311 28.5673 11.1715 28.2655 11.6326C27.9637 12.0937 27.5316 12.4547 27.0242 12.6697C26.5167 12.8847 25.9569 12.944 25.4156 12.8402C24.8744 12.7363 24.3763 12.474 23.9845 12.0864C23.5927 11.6988 23.3249 11.2035 23.2152 10.6635C23.1055 10.1234 23.1588 9.56291 23.3683 9.05318C23.5778 8.54346 23.934 8.1075 24.3918 7.80068C24.8496 7.49386 25.3883 7.33003 25.9395 7.33ZM48.7794 18.73C48.7794 20.67 49.3995 21.12 51.0695 21.87L51.2194 21.93V22.38H41.2194V21.95L41.3195 21.89C42.5995 21.08 42.6895 20.76 42.6895 18.75V10.15C42.6895 8.06 42.5394 7.74 41.1494 6.95L41.0194 6.88V6.45H48.7694V18.73H48.7794ZM106.969 16.4L107.059 16.17L107.529 16.36V16.55C107.139 19.35 105.819 22.7 101.609 22.7C100.914 22.7313 100.219 22.6227 99.5664 22.3805C98.9137 22.1383 98.3162 21.7675 97.8094 21.29C97.3038 20.7364 96.9161 20.0856 96.6703 19.3772C96.4244 18.6689 96.3254 17.9179 96.3794 17.17L96.4495 7.44V6.44L96.5994 6.38C97.8011 5.83989 98.8761 5.05343 99.7546 4.07153C100.633 3.08964 101.296 1.93419 101.699 0.68L101.759 0.529999H102.489V6.43H107.289L106.759 7.93H102.489V17.3C102.489 18.79 103.039 19.56 104.129 19.56C105.449 19.56 106.499 17.92 107.009 16.4H106.969ZM8.96936 18.4C8.96936 20.3 9.3594 20.88 11.2594 21.86L11.3894 21.92V22.37H0.859375V21.94L0.96936 21.88C2.26936 21.02 2.58936 20.32 2.58936 18.31V4.02C2.58936 2.02 2.28936 1.35 0.96936 0.5L0.859375 0.439999V0.00999832H8.94946V18.41L8.96936 18.4ZM12.7494 0C18.2794 0 21.5894 2.47 21.5894 6.64C21.5894 10.81 18.2995 13.28 12.8195 13.28H10.5494V12.78H10.6394C12.0218 12.4675 13.2526 11.6841 14.121 10.564C14.9893 9.44384 15.4413 8.05667 15.3994 6.64C15.3994 4.16 14.4995 2.37 12.7095 1.34C12.0934 0.949877 11.4179 0.662777 10.7095 0.489998H10.5994V0H12.7994H12.7494ZM121.749 11.63C120.589 9.18 118.859 7.3 117.239 6.77H117.159V6.2L117.839 6.26C118.633 6.35292 119.431 6.403 120.229 6.41C120.81 6.44415 121.393 6.39362 121.959 6.26L122.259 6.18V11.83H121.809L121.749 11.68V11.63ZM66.0494 6.1C70.3194 6.42 72.8794 9.26 72.8794 13.68V13.92H65.4294V13.53L65.5394 13.46C66.4094 12.93 66.7994 11.93 66.7994 10.22C66.8718 8.97116 66.5726 7.72888 65.9395 6.65V6.16L66.0494 6.1ZM72.1494 17.02L72.2494 16.83L72.6995 17L72.6394 17.21C71.7194 20.61 68.6395 22.68 64.8195 22.68C59.8195 22.68 56.3894 19.28 56.3894 14.4C56.3293 12.2842 57.1008 10.2291 58.5385 8.67556C59.9761 7.12203 61.9654 6.1938 64.0795 6.09H64.2095V6.58V6.63C63.1195 7.63 62.5894 9.96 62.5894 13.69C62.5894 17.42 64.4294 19.69 67.3894 19.69C68.3562 19.7408 69.3181 19.5217 70.1675 19.0573C71.0169 18.5928 71.7205 17.9013 72.1995 17.06L72.1494 17.02ZM82.0494 18.86C82.0494 20.76 82.1394 21.08 83.4194 21.86L83.5194 21.92V22.35H74.4694V21.92L74.5795 21.86C75.8595 21.05 75.9495 20.73 75.9495 18.72V10.12C75.9495 8.03 75.7994 7.71 74.4094 6.92L74.2794 6.85V6.42H82.0294V18.83L82.0494 18.86ZM92.8094 18.73C92.8094 20.73 92.8994 21.06 94.1794 21.87L94.2794 21.93V22.36H85.2794V21.93L85.3894 21.87C86.6694 21.06 86.7594 20.74 86.7594 18.73V10.34C86.7594 8.87 86.0494 7.97 84.8594 7.97C84.5438 7.96816 84.2289 7.99831 83.9194 8.06H83.7694V7.57V7.52C84.8375 6.6213 86.1746 6.10406 87.5695 6.05C90.8395 6.05 92.7994 8.16 92.7994 11.71V18.71L92.8094 18.73ZM39.1494 20.89C39.3617 20.8995 39.5734 20.862 39.7694 20.78L40.0894 20.63V21.14L40.0294 21.21C39.4927 21.7057 38.8624 22.0893 38.1755 22.3382C37.4887 22.5872 36.7591 22.6966 36.0294 22.66C33.3194 22.66 31.5494 21.21 31.5494 18.94V11.3C31.5839 10.6574 31.4814 10.0148 31.2487 9.41484C31.0159 8.81488 30.6583 8.27125 30.1995 7.82C29.6429 7.25013 28.9023 6.89585 28.1094 6.82H27.8694V6.33H28.0695C28.6544 6.22964 29.246 6.17282 29.8394 6.16C35.0694 6.16 37.6294 8.01 37.6294 11.86C37.6294 12.75 37.6294 13.63 37.6294 14.57V14.63C37.6294 15.63 37.6294 16.7 37.6294 17.92C37.6294 19.99 37.8495 20.92 39.1895 20.92L39.1494 20.89ZM21.7994 18.73C21.7994 15.08 25.7495 14.4 29.2095 13.8L30.2694 13.67V14.14H30.1895C29.4102 14.3956 28.7415 14.9096 28.2942 15.597C27.8468 16.2844 27.6475 17.104 27.7294 17.92C27.7294 19.35 28.3094 20.23 29.3094 20.23C29.5848 20.2316 29.8584 20.1876 30.1194 20.1L30.2894 20.03V20.53C29.8241 21.162 29.2235 21.6822 28.5315 22.0524C27.8395 22.4227 27.0734 22.6337 26.2894 22.67C23.3194 22.68 21.7794 20.69 21.7794 18.73H21.7994ZM52.8794 6.11C53.6107 6.1152 54.3108 6.40734 54.8289 6.92353C55.3469 7.43973 55.6416 8.13871 55.6494 8.87C55.6481 9.23245 55.5755 9.59109 55.4355 9.92545C55.2956 10.2598 55.0912 10.5633 54.834 10.8187C54.5768 11.0741 54.2718 11.2762 53.9364 11.4137C53.601 11.5512 53.2418 11.6213 52.8794 11.62C52.1488 11.6149 51.4492 11.3245 50.9298 10.8107C50.4104 10.2969 50.1124 9.60046 50.0994 8.87C50.0994 8.138 50.3902 7.43599 50.9078 6.91838C51.4254 6.40078 52.1274 6.11 52.8594 6.11H52.8794ZM109.879 16.3C111.499 19.63 113.059 21.44 114.789 21.97H114.869V22.56H114.739C114.359 22.5 113.929 22.41 113.399 22.31C112.769 22.1587 112.127 22.0649 111.479 22.03C110.983 22.0045 110.488 22.0899 110.029 22.28L109.709 22.46L109.339 16.14H109.809L109.879 16.27V16.3ZM117.879 11.51C120.879 12.56 123.199 13.65 123.199 17.43C123.197 18.1082 123.051 18.7782 122.77 19.3954C122.489 20.0127 122.08 20.5631 121.569 21.01C120.168 22.1683 118.386 22.7636 116.569 22.68H116.439V22.55V22.1H116.539C117.215 22.1072 117.871 21.8651 118.379 21.42C118.6 21.2025 118.775 20.9422 118.891 20.6551C119.008 20.3679 119.066 20.06 119.059 19.75C119.059 18.24 118.059 17.94 115.939 17.3L115.429 17.15C111.229 15.85 109.629 14.15 109.749 10.94C109.859 8.21 112.289 6.18 115.539 6.11H115.669V6.67H115.559C115.01 6.73575 114.504 6.9996 114.136 7.41203C113.768 7.82446 113.563 8.35711 113.559 8.91C113.559 10.19 115.219 10.68 116.819 11.17H116.889C117.249 11.25 117.609 11.36 117.889 11.46L117.879 11.51Z" fill="#035C67"/>
</svg>
