<svg width="192" height="22" viewBox="0 0 192 22" fill="none" xmlns="http://www.w3.org/2000/svg">
<path d="M0.199219 0.170044H9.71924C14.1692 0.170044 17.0292 2.76004 17.0292 6.79004C17.0078 7.87631 16.7391 8.9434 16.2435 9.91027C15.748 10.8771 15.0386 11.7184 14.1693 12.37L13.9592 12.5L17.6392 21.71H12.7492L9.41925 13.58H4.82922V21.71H0.199219V0.170044ZM9.49921 8.99004C11.4092 8.99004 12.6592 8.17004 12.6592 6.92004C12.6592 5.49004 11.5792 4.71004 9.65924 4.71004H4.77924V8.99004H9.49921Z" fill="#035C67"/>
<path d="M20.7891 0.170044H36.5891V4.58004H25.4191V7.91005H31.4791V12.37H25.4191V17.27H36.8391V21.72H20.8391L20.7891 0.170044Z" fill="#035C67"/>
<path d="M39.0195 21.72L48.1495 0.170044H51.8695L60.8695 21.71H56.1096L54.0295 16.91H45.8495L43.7795 21.71L39.0195 21.72ZM52.2095 12.47L49.9595 7.17004L47.7095 12.5L52.2095 12.47Z" fill="#035C67"/>
<path d="M63.3691 0.170044H67.9592V17.31H79.3792V21.72H63.3792L63.3691 0.170044Z" fill="#035C67"/>
<path d="M87.1495 14.37C89.2695 16.92 90.5695 17.66 92.7295 17.66C94.8895 17.66 96.4995 16.66 96.4995 15.19C96.4995 13.98 95.4995 13.33 92.7795 12.72C89.0095 11.86 87.4494 11.04 86.3694 9.35C85.8016 8.42709 85.5037 7.36358 85.5095 6.28C85.5095 2.6 88.4495 0 92.5995 0C94.22 0.0042196 95.8176 0.382755 97.2678 1.10609C98.7179 1.82942 99.9813 2.87799 100.959 4.17L97.6595 6.97C95.4995 4.97 94.4594 4.46 92.5594 4.46C90.9194 4.46 89.8795 5.11 89.8795 6.11C89.8795 7.11 90.5295 7.53 92.3895 7.97C92.8595 8.1 93.5095 8.27 94.3295 8.53L97.0594 9.39C98.2185 9.81209 99.217 10.5851 99.9161 11.6014C100.615 12.6177 100.98 13.8267 100.959 15.06C100.959 19.06 97.5895 21.94 92.9595 21.94C90.5348 21.936 88.1794 21.1309 86.2595 19.65C85.6895 19.17 84.9995 18.48 84.0895 17.53C83.7895 17.22 83.7495 17.18 83.4395 16.83L87.1495 14.37Z" fill="#035C67"/>
<path d="M104.238 0.170044H108.778V21.72H104.238V0.170044Z" fill="#035C67"/>
<path d="M112.219 0.170044H116.459L121.959 11.77L127.449 0.170044H131.959V21.71H127.459V10.82L121.959 21.72L116.809 10.91V21.72H112.309L112.219 0.170044Z" fill="#035C67"/>
<path d="M135.33 0.170044H145.33C149.57 0.170044 152.52 2.89004 152.52 6.83004C152.52 10.77 149.44 13.58 145.2 13.58H139.96V21.71H135.38L135.33 0.170044ZM144.8 9.04004H145.15C147.01 9.04004 148.15 8.22004 148.15 6.83004C148.15 5.44004 147.07 4.67004 145.25 4.67004H139.89V9.04004H144.8Z" fill="#035C67"/>
<path d="M155.709 0.170044H160.289V17.31H171.719V21.72H155.719L155.709 0.170044Z" fill="#035C67"/>
<path d="M175.049 0.170044H190.839V4.58004H179.679V7.91005H185.679V12.37H179.679V17.27H191.099V21.72H175.099L175.049 0.170044Z" fill="#035C67"/>
</svg>
