<svg width="43" height="40" viewBox="0 0 43 40" fill="none" xmlns="http://www.w3.org/2000/svg">
<path d="M23.2198 1.37274L26.8264 12.393C26.9595 12.7909 27.2165 13.1376 27.5611 13.384C27.9057 13.6304 28.3205 13.7641 28.7467 13.766H40.5575C40.9839 13.7651 41.3996 13.8969 41.7451 14.1424C42.0905 14.388 42.348 14.7348 42.4806 15.133C42.6132 15.5313 42.614 15.9605 42.483 16.3593C42.3521 16.758 42.096 17.1058 41.7515 17.3527L32.2241 24.1693C31.8794 24.4162 31.6225 24.7635 31.49 25.162C31.3574 25.5604 31.3559 25.9897 31.4855 26.3891L35.1168 37.4033C35.2468 37.8024 35.2453 38.2316 35.1125 38.6298C34.9797 39.028 34.7224 39.3749 34.3772 39.6209C34.032 39.8669 33.6166 39.9996 33.1902 40C32.7638 40.0004 32.3482 39.8685 32.0025 39.6231L22.4751 32.8065C22.1324 32.5566 21.717 32.4216 21.2903 32.4216C20.8636 32.4216 20.4482 32.5566 20.1056 32.8065L10.572 39.6231C10.2263 39.8685 9.81069 40.0004 9.38428 40C8.95788 39.9996 8.54248 39.8669 8.19731 39.6209C7.85214 39.3749 7.59481 39.028 7.462 38.6298C7.3292 38.2316 7.32769 37.8024 7.45771 37.4033L11.0951 26.3891C11.2267 25.9899 11.2261 25.5599 11.0934 25.1611C10.9607 24.7622 10.7027 24.415 10.3566 24.1693L0.829134 17.3527C0.484656 17.1058 0.228574 16.758 0.097602 16.3593C-0.0333705 15.9605 -0.0325081 15.5313 0.100065 15.133C0.232639 14.7348 0.490115 14.388 0.835583 14.1424C1.18105 13.8969 1.59677 13.7651 2.02314 13.766H13.8093C14.2398 13.7727 14.661 13.6426 15.0102 13.3953C15.3595 13.1479 15.6183 12.7964 15.748 12.393L19.3608 1.37274C19.4944 0.973406 19.7528 0.625704 20.0993 0.379206C20.4458 0.132709 20.8626 0 21.2903 0C21.7181 0 22.1349 0.132709 22.4813 0.379206C22.8278 0.625704 23.0863 0.973406 23.2198 1.37274Z" fill="#035C67"/>
</svg>
