<svg width="73" height="50" viewBox="0 0 73 50" fill="none" xmlns="http://www.w3.org/2000/svg">
<path d="M2.04895 20.02C1.80895 18.93 1.66897 18.76 1.31897 18.67L0.958984 18.57V18.31H4.41895V18.57H4.13898C3.54898 18.7 3.60898 19.29 3.76898 20.1L5.22894 27.34L6.30896 21.58L5.91895 19.58C5.76895 18.87 5.71894 18.67 5.34894 18.58L5.10895 18.53V18.27H8.48895V18.53L8.07898 18.6C7.46898 18.7 7.56898 19.38 7.70898 20.1L9.11896 27.35L10.499 20.49C10.759 19.06 10.629 18.71 10.079 18.6L9.68896 18.53V18.27H12.2289V18.53L11.879 18.63C11.439 18.73 11.329 19.09 11.069 20.33L8.80896 31.09H8.32898L6.55896 22.75L4.98895 31.14H4.37897L2.04895 20.02ZM20.129 30.7H20.869C22.439 30.7 22.869 28.83 23.089 26.85H23.3589V31.07H13.9089V30.81L14.2889 30.73C15.0889 30.59 15.089 30.36 14.889 29.25L14.559 27.59H12.259L12.019 28.85C11.749 30.27 11.889 30.62 12.449 30.73L12.829 30.81V31.07H10.269V30.81L10.569 30.71C11.079 30.56 11.199 30.26 11.459 29.01L13.709 18.25H14.269L16.629 29.36C16.869 30.5 16.979 30.74 17.629 30.74C18.279 30.74 18.4089 30.44 18.4089 29.89V19.47C18.4089 18.96 18.239 18.78 17.869 18.69L17.459 18.59V18.33H21.119V18.61L20.619 18.71C20.249 18.78 20.079 18.95 20.079 19.47L20.129 30.7ZM12.3489 27.16H14.459L13.379 21.93L12.3489 27.16ZM26.399 30.7H27.129C28.709 30.7 29.1289 28.83 29.3489 26.85H29.629V31.07H23.769V30.81L24.179 30.71C24.549 30.6 24.709 30.43 24.709 29.91V19.47C24.709 18.96 24.549 18.78 24.179 18.69L23.769 18.59V18.33H27.429V18.61L26.9189 18.71C26.5489 18.78 26.389 18.95 26.389 19.47L26.399 30.7ZM35.649 31.14C34.579 31.14 34.2089 30.4 33.8489 30.4C33.6489 30.4 33.4089 30.45 33.2289 31.06H32.999V26.84H33.2789C33.4989 29.23 34.399 30.72 35.619 30.72C36.449 30.72 37.0289 29.97 37.0289 28.59C37.0289 25.7 32.899 24.47 32.899 21.27C32.899 19.54 33.7889 18.27 35.3589 18.27C36.3589 18.27 36.5989 18.93 37.0289 18.93C37.2689 18.93 37.4289 18.75 37.5289 18.34H37.759V22.53H37.4789C37.2589 20.39 36.679 18.64 35.339 18.64C34.429 18.64 34.2189 19.56 34.2189 20.2C34.2189 22.94 38.3489 23.89 38.3489 27.74C38.3489 29.74 37.269 31.12 35.629 31.12L35.649 31.14ZM42.459 29.93C42.459 30.44 42.619 30.64 42.989 30.73L43.4789 30.83V31.09H39.749V30.83L40.2289 30.73C40.5989 30.62 40.769 30.45 40.769 29.93V18.69H40.3589C39.2089 18.69 38.749 20.56 38.629 22.53H38.3489V18.32H44.879V22.54H44.559C44.429 20.54 43.969 18.69 42.829 18.69H42.429V29.93H42.459ZM45.2789 30.85L45.689 30.74C46.059 30.64 46.2289 30.47 46.2289 29.95V19.49C46.2289 18.98 46.059 18.8 45.689 18.71L45.2789 18.61V18.35H48.809C49.2151 18.3335 49.6201 18.4029 49.9976 18.5536C50.375 18.7043 50.7165 18.9329 50.9996 19.2245C51.2827 19.5161 51.5011 19.8642 51.6406 20.2459C51.78 20.6277 51.8374 21.0346 51.809 21.44C51.8663 22.1462 51.6718 22.8499 51.26 23.4265C50.8482 24.003 50.2456 24.4152 49.559 24.59C51.239 24.89 51.2389 25.71 51.4089 27.82L51.509 29.45C51.569 30.36 51.6089 30.57 51.8589 30.57C52.1089 30.57 52.249 29.94 52.249 29.33V29.02H52.559V29.45C52.559 30.45 52.3289 31.18 51.2789 31.18C50.2289 31.18 49.759 30.58 49.689 28.46L49.589 26.09C49.589 24.98 49.289 24.8 48.739 24.8H47.869V29.93C47.869 30.44 48.0389 30.64 48.4089 30.74L48.809 30.84V31.1H45.259L45.2789 30.85ZM47.889 24.43H48.499C49.499 24.43 50.049 24.15 50.049 21.69C50.049 19.23 49.369 18.74 48.629 18.74H47.889V24.43ZM55.309 30.74H56.559C58.219 30.74 58.559 28.85 58.759 26.89H59.0289V31.11H52.6589V30.83L53.059 30.73C53.429 30.62 53.5989 30.45 53.5989 29.93V19.49C53.5989 18.98 53.429 18.77 53.059 18.69L52.6589 18.59V18.33H58.8589V22.54H58.579C58.379 20.54 57.989 18.7 56.579 18.7H55.299V24.26H55.889C56.689 24.2 56.979 23.52 57.189 21.92H57.459V27.06H57.189C57.019 25.06 56.7089 24.72 55.8589 24.67H55.2889L55.309 30.74ZM62.1689 30.74H63.439C65.109 30.74 65.439 28.85 65.639 26.89H65.9189V31.11H59.559V30.83L59.959 30.73C60.329 30.62 60.499 30.45 60.499 29.93V19.49C60.499 18.98 60.329 18.77 59.959 18.69L59.559 18.59V18.33H65.759V22.54H65.4789C65.2789 20.54 64.8889 18.7 63.4789 18.7H62.199V24.26H62.7889C63.5889 24.2 63.879 23.52 64.089 21.92H64.369V27.06H64.089C63.929 25.06 63.609 24.72 62.769 24.67H62.199L62.1689 30.74ZM70.429 29.94C70.429 30.51 70.5989 30.62 70.9689 30.72L71.5389 30.85V31.1H67.7289V30.85L68.209 30.74C68.579 30.64 68.749 30.47 68.749 29.95V18.69H68.339C67.199 18.69 66.729 20.56 66.6089 22.53H66.339V18.32H72.8589V22.54H72.559C72.429 20.54 71.969 18.69 70.829 18.69H70.429V29.94ZM30.129 11.6C30.129 12.18 30.2889 12.29 30.6589 12.38L31.239 12.51V12.77H27.429V12.51L27.9089 12.41C28.2789 12.31 28.449 12.13 28.449 11.61V0.369999H28.0389C26.8889 0.369999 26.429 2.24 26.309 4.22H26.019V0.0100021H32.559V4.22H32.2789C32.1489 2.22 31.6889 0.380001 30.549 0.380001H30.149L30.129 11.6ZM32.949 12.52L33.3589 12.42C33.7289 12.32 33.899 12.14 33.899 11.62V1.14C33.899 0.629999 33.7289 0.460001 33.3589 0.360001L32.949 0.260002V0H36.559V0.260002L36.129 0.360001C36.0422 0.372071 35.9587 0.401566 35.8836 0.446716C35.8085 0.491866 35.7433 0.551738 35.6919 0.62273C35.6405 0.693723 35.6041 0.77437 35.5847 0.859825C35.5652 0.945281 35.5633 1.03378 35.579 1.12V5.98H38.369V1.14C38.3846 1.05378 38.3827 0.965281 38.3633 0.879826C38.3439 0.79437 38.3074 0.713723 38.256 0.642731C38.2046 0.571738 38.1394 0.511867 38.0643 0.466717C37.9892 0.421567 37.9058 0.392071 37.819 0.380001L37.389 0.279999V0H40.999V0.260002L40.589 0.360001C40.219 0.470001 40.049 0.619999 40.049 1.14V11.55C40.049 12.05 40.219 12.26 40.589 12.36L40.999 12.46V12.72H37.389V12.46L37.819 12.36C37.9971 12.3214 38.1535 12.2157 38.2559 12.065C38.3583 11.9142 38.3988 11.7298 38.369 11.55V6.43H35.559V11.58C35.559 12.09 35.759 12.3 36.119 12.4L36.5389 12.5V12.76H32.939L32.949 12.52ZM44.0389 12.42H45.309C46.969 12.42 47.309 10.53 47.509 8.57H47.7889V12.79H41.4089V12.53L41.819 12.43C42.189 12.33 42.3489 12.15 42.3489 11.63V1.17C42.3489 0.660002 42.189 0.459999 41.819 0.369999L41.4089 0.27V0H47.6089V4.22H47.339C47.129 2.22 46.739 0.369999 45.339 0.369999H44.069V5.93H44.6589C45.4489 5.87 45.749 5.19 45.949 3.59H46.2289V8.73H45.949C45.789 6.73 45.469 6.39 44.629 6.34H44.059L44.0389 12.42ZM17.179 46.42C17.179 48.42 16.179 49.42 14.639 49.42C14.3373 49.4195 14.0391 49.3568 13.7628 49.2356C13.4866 49.1145 13.2383 48.9376 13.0336 48.716C12.829 48.4944 12.6723 48.233 12.5734 47.948C12.4745 47.663 12.4356 47.3607 12.459 47.06C12.4418 46.8826 12.4626 46.7036 12.5203 46.535C12.5779 46.3664 12.6709 46.212 12.793 46.0822C12.9152 45.9525 13.0637 45.8504 13.2286 45.7827C13.3934 45.7151 13.5709 45.6835 13.749 45.69C13.8667 45.7006 13.9809 45.7356 14.0844 45.7928C14.1878 45.85 14.2781 45.9282 14.3497 46.0223C14.4212 46.1164 14.4723 46.2244 14.4997 46.3393C14.5271 46.4543 14.5303 46.5737 14.509 46.69C14.459 47.6 13.4589 47.58 13.4189 48.15C13.4189 48.5 13.8489 49.02 14.4189 49.02C15.4189 49.02 15.4189 47.69 15.4189 46.71V37.71C15.4189 37.2 15.2589 37.05 14.8489 36.96L14.389 36.85V36.63H18.0289V36.93L17.619 37.04C17.249 37.14 17.1089 37.29 17.1089 37.81L17.179 46.42ZM21.489 49.42C19.329 49.42 18.269 46.5 18.269 42.95C18.269 39.4 19.269 36.5 21.489 36.5C23.709 36.5 24.7189 39.42 24.7189 42.95C24.7189 46.48 23.719 49.45 21.489 49.45V49.42ZM21.489 36.92C20.569 36.92 20.0989 37.65 20.0989 42.92C20.0989 48.31 20.529 49.05 21.489 49.05C22.449 49.05 22.889 48.29 22.889 42.88C22.889 37.67 22.449 36.93 21.489 36.93V36.92ZM32.0389 49.06L32.449 48.96C32.819 48.85 32.9789 48.68 32.9789 48.16V37.77C32.9789 37.16 32.709 36.94 32.069 36.94C31.259 36.94 31.069 37.31 31.069 38.36V46.36C31.069 48.36 30.359 49.43 28.649 49.43C26.939 49.43 25.839 48.36 25.839 46.43V37.77C25.839 37.26 25.719 37.09 25.339 36.99L24.929 36.89V36.62H28.559V36.93L28.049 37.03C27.639 37.13 27.4789 37.27 27.4789 37.79V46.61C27.4789 48.4 27.989 48.86 28.939 48.86C30.059 48.86 30.509 48.23 30.509 46.42V39.02C30.509 37.46 30.509 37.08 29.819 36.95L29.4689 36.87V36.61H35.559C35.9651 36.5935 36.3701 36.6629 36.7476 36.8136C37.125 36.9643 37.4665 37.1929 37.7496 37.4845C38.0327 37.7761 38.2511 38.1242 38.3906 38.5059C38.53 38.8877 38.5874 39.2946 38.559 39.7C38.614 40.413 38.4124 41.1222 37.9907 41.6998C37.569 42.2773 36.9549 42.6853 36.259 42.85C37.949 43.16 37.9489 43.97 38.1089 46.08L38.209 47.71C38.269 48.63 38.319 48.83 38.559 48.83C38.799 48.83 38.949 48.2 38.949 47.59V47.29H39.259V47.71C39.259 48.71 39.0389 49.44 37.9789 49.44C36.9189 49.44 36.459 48.85 36.389 46.72L36.2889 44.36C36.2889 43.24 35.989 43.06 35.439 43.06H34.569V48.2C34.569 48.71 34.7389 48.91 35.1089 49.01L35.519 49.12V49.37H31.959V49.12L32.0389 49.06ZM34.649 42.65H35.259C36.259 42.65 36.809 42.37 36.809 39.9C36.809 37.43 36.129 36.9 35.389 36.9H34.649V42.65ZM39.649 36.92L39.389 36.84V36.59H41.809L45.119 44.98V38.93C45.119 37.56 45.119 37.08 44.119 36.93L43.819 36.86V36.6H46.559V36.93L46.309 37C45.509 37.19 45.569 37.84 45.569 39.14V49.36H44.9689L40.809 39.18V47.01C40.809 48.51 40.809 48.94 41.989 49.1V49.36H39.329V49.1L39.6589 49.04C40.3389 48.91 40.329 48.25 40.329 46.91V38.06C40.019 37.42 39.879 37.06 39.589 36.95L39.649 36.92ZM55.9089 48.92H56.649C58.219 48.92 58.649 47.05 58.869 45.07H59.139V49.29H49.7189V49.03L50.1089 48.97C50.8989 48.82 50.919 48.6 50.699 47.49L50.3589 45.93H48.089L47.839 47.19C47.569 48.61 47.719 48.97 48.269 49.08L48.6589 49.15V49.41H46.089V49.15L46.389 49.05C46.899 48.9 47.0189 48.61 47.2789 47.35L49.559 36.54H50.119L52.4789 47.65C52.7189 48.8 52.8189 49.04 53.4789 49.04C54.1389 49.04 54.259 48.73 54.259 48.19V37.77C54.259 37.26 54.0889 37.09 53.7189 36.99L53.319 36.89V36.63H56.9789V36.93L56.4689 37.03C56.0989 37.11 55.929 37.27 55.929 37.79L55.9089 48.92ZM48.149 45.41H50.259L49.189 40.15L48.149 45.41Z" fill="#035C67"/>
</svg>
