<svg width="101" height="37" viewBox="0 0 101 37" fill="none" xmlns="http://www.w3.org/2000/svg">
<path d="M19.5788 0.00212772C15.9217 -0.0534517 12.3309 0.980955 9.26377 2.97355C6.19669 4.96615 3.79224 7.82672 2.35679 11.1908C0.921336 14.5548 0.519911 18.2701 1.20359 21.8631C1.88727 25.4562 3.62509 28.7644 6.19571 31.3662C8.76634 33.968 12.0534 35.7456 15.6379 36.4725C19.2225 37.1995 22.9423 36.8428 26.3234 35.448C29.7045 34.0532 32.5938 31.6834 34.6233 28.6406C36.6527 25.5977 37.7303 22.0196 37.7188 18.3621C37.7454 13.5227 35.8498 8.87063 32.4485 5.42802C29.0471 1.98541 24.4182 0.0338585 19.5788 0.00212772ZM19.5788 7.79213C23.1006 7.80546 26.5487 8.80203 29.5346 10.6695C32.5205 12.5371 34.9256 15.2013 36.4788 18.3621C34.9615 21.5613 32.5676 24.2643 29.5751 26.1569C26.5827 28.0496 23.1146 29.0543 19.5738 29.0543C16.0331 29.0543 12.565 28.0496 9.57255 26.1569C6.5801 24.2643 4.18612 21.5613 2.6688 18.3621C4.21812 15.1961 6.62364 12.5277 9.61252 10.6594C12.6014 8.79111 16.0541 7.7978 19.5788 7.79213ZM19.5788 8.63213C17.6459 8.6262 15.7548 9.19432 14.1452 10.2645C12.5356 11.3346 11.2799 12.8586 10.5375 14.6433C9.79508 16.4279 9.59932 18.3928 9.97495 20.2888C10.3506 22.1849 11.2807 23.9267 12.6475 25.2934C14.0143 26.6602 15.7561 27.5904 17.6521 27.966C19.5482 28.3416 21.5131 28.1458 23.2977 27.4034C25.0823 26.661 26.6063 25.4054 27.6765 23.7958C28.7466 22.1861 29.3147 20.295 29.3088 18.3621C29.3036 15.7813 28.2774 13.3075 26.4544 11.4807C24.6314 9.65394 22.1596 8.62269 19.5788 8.61213V8.63213ZM53.8088 7.31213C52.3383 7.27552 50.8755 7.53667 49.5085 8.07988C48.1414 8.6231 46.8983 9.43715 45.854 10.4731C44.8096 11.5091 43.9856 12.7455 43.4313 14.1081C42.8771 15.4707 42.6041 16.9313 42.6288 18.4021V18.4821C42.6059 19.933 42.8747 21.3737 43.4193 22.7187C43.964 24.0636 44.7734 25.2854 45.7995 26.3115C46.8255 27.3375 48.0474 28.1469 49.3923 28.6916C50.7373 29.2362 52.1779 29.5051 53.6288 29.4821C55.2894 29.5518 56.9441 29.2422 58.4671 28.5769C59.9902 27.9115 61.3416 26.9079 62.4188 25.6421L59.4188 22.6421C57.7388 24.1621 56.2088 25.1621 53.7788 25.1621C50.0988 25.1621 47.5488 22.0721 47.5488 18.4021V18.3421C47.5488 14.6621 50.1588 11.6621 53.7788 11.6621C55.8534 11.726 57.8221 12.5938 59.2688 14.0821L62.2688 10.6121C61.1684 9.49753 59.8452 8.62752 58.3857 8.0589C56.9262 7.49027 55.3633 7.23582 53.7988 7.31213H53.8088ZM64.2188 7.69213V29.1421H74.4388C79.2788 29.1421 82.4388 27.1421 82.4388 23.2621V23.1821C82.4388 20.3121 80.9088 18.8721 78.4388 17.9221C79.3043 17.5032 80.0306 16.8437 80.5307 16.0225C81.0309 15.2013 81.2837 14.2533 81.2588 13.2921V13.2321C81.2754 12.5619 81.1554 11.8953 80.9061 11.273C80.6568 10.6507 80.2835 10.0856 79.8088 9.61213C78.2608 8.27552 76.2498 7.60039 74.2088 7.73213L64.2188 7.69213ZM68.8088 11.8121H73.4789C75.4789 11.8121 76.5788 12.6121 76.5788 14.0121V14.0921C76.5788 15.6821 75.2488 16.3521 73.1588 16.3521H68.8088V11.8121ZM68.8088 20.2721H74.2888C76.7088 20.2721 77.7688 21.1721 77.7688 22.6121V22.6821C77.7688 24.2721 76.4988 25.0021 74.4288 25.0021H68.8088V20.2721ZM91.7088 7.37213C87.3488 7.37213 84.2088 9.95213 84.2088 13.8521V13.9121C84.2088 18.1621 87.0088 19.3621 91.3188 20.4621C94.9088 21.3921 95.6488 21.9921 95.6488 23.1821V23.2621C95.6488 24.5121 94.4688 25.2621 92.5488 25.2621C90.1706 25.201 87.8958 24.2769 86.1488 22.6621L83.3489 26.0021C85.8652 28.2177 89.1061 29.4344 92.4588 29.4221C97.0888 29.4221 100.329 27.0221 100.329 22.7721C100.329 19.0121 97.8588 17.4721 93.5188 16.3221C89.8188 15.3221 88.8888 14.9021 88.8888 13.5021C88.8888 12.4521 89.8888 11.6121 91.6488 11.6121C93.6858 11.7351 95.6365 12.4784 97.2389 13.7421L99.6788 10.1621C97.4108 8.35059 94.581 7.38848 91.6788 7.44213L91.7088 7.37213Z" fill="#035C67"/>
</svg>
