<svg width="120" height="120" viewBox="0 0 120 120" fill="none" xmlns="http://www.w3.org/2000/svg">
<g clip-path="url(#clip0_2829_33112)">
<rect width="120" height="120" fill="white"/>
<rect width="120" height="120" rx="32" fill="#F3F3F3"/>
<circle r="11.8839" transform="matrix(0.970443 -0.241332 -0.241332 -0.970443 79.6815 52.6004)" fill="#FAD799" stroke="#1D252C"/>
<circle r="11.8839" transform="matrix(0.970443 -0.241332 -0.241332 -0.970443 79.3717 53.9864)" fill="url(#paint0_linear_2829_33112)" stroke="#1D252C"/>
<circle r="9.78002" transform="matrix(0.970443 -0.241332 -0.241332 -0.970443 79.3715 53.9865)" fill="url(#paint1_linear_2829_33112)" stroke="#1D252C"/>
<path d="M21.8279 74.9126L56.1695 75.398C57.054 75.4105 57.7733 74.6909 57.6081 73.8219C56.6813 68.9469 51.8894 59.7295 38.0372 50.9096C39.884 43.5727 50.38 36.3406 56.5027 33.0102C57.0651 32.7043 57.0649 31.8874 56.4974 31.5913L28.7917 17.1407C28.1334 16.7973 27.3211 16.9574 26.8841 17.5576C23.5344 22.1581 20.3929 30.1037 23.8 37.8412C31.2265 54.9664 25.776 67.9081 21.2061 73.4838C20.7618 74.0258 21.1271 74.9027 21.8279 74.9126Z" fill="url(#paint2_linear_2829_33112)"/>
<path d="M23.8 37.8412C20.3929 30.1037 23.5344 22.1581 26.8841 17.5576C27.3211 16.9574 28.1334 16.7973 28.7918 17.1407L56.4974 31.5913C57.0649 31.8874 57.0651 32.7043 56.5027 33.0102C50.38 36.3406 39.884 43.5727 38.0372 50.9096M23.8 37.8412C25.5125 41.7304 28.8795 45.5671 34.7061 48.9C35.8708 49.5661 36.9804 50.2367 38.0372 50.9096M23.8 37.8412C31.2265 54.9664 25.776 67.9081 21.2061 73.4838C20.7618 74.0258 21.1271 74.9027 21.8279 74.9126L56.1695 75.398C57.054 75.4105 57.7733 74.6909 57.6081 73.8219C56.6813 68.9469 51.8894 59.7295 38.0372 50.9096" stroke="#1D252C"/>
<ellipse rx="2.76492" ry="3.75239" transform="matrix(-0.399317 0.916813 0.916813 0.399317 47.7506 32.0957)" fill="#99EDC5"/>
<ellipse rx="2.76492" ry="3.75239" transform="matrix(0.0244671 0.999701 0.999701 -0.0244671 49.3552 70.3658)" fill="#99EDC5"/>
<ellipse rx="2.76492" ry="3.75239" transform="matrix(0.0244671 0.999701 0.999701 -0.0244671 30.6407 70.3617)" fill="#99EDC5"/>
<path d="M37.3523 50.7816C37.6389 50.0576 37.7644 49.1805 37.7577 48.3787C37.7241 44.3547 33.7063 41.1258 28.7836 41.1669C27.9033 41.1742 26.8807 41.2941 26.0791 41.4952C26.5187 42.6267 28.8559 44.9483 31.4093 46.9252C33.9628 48.902 36.7323 50.5341 37.3523 50.7816Z" fill="#99EDC5"/>
<ellipse rx="2.76492" ry="3.75239" transform="matrix(-0.399317 0.916813 0.916813 0.399317 30.6977 24.7246)" fill="#99EDC5"/>
<path d="M23.7999 37.8412C20.3929 30.1037 23.5344 22.1581 26.8841 17.5576C27.3211 16.9574 28.1334 16.7973 28.7917 17.1407L56.4973 31.5913C57.0649 31.8874 57.065 32.7043 56.5027 33.0102C50.38 36.3406 39.884 43.5727 38.0372 50.9096M23.7999 37.8412C25.5125 41.7304 28.8795 45.5671 34.7061 48.9C35.8707 49.5661 36.9803 50.2367 38.0372 50.9096M23.7999 37.8412C31.2265 54.9664 25.7759 67.9081 21.2061 73.4838C20.7618 74.0258 21.1271 74.9027 21.8279 74.9126L56.1694 75.398C57.054 75.4105 57.7733 74.6909 57.6081 73.8219C56.6813 68.9469 51.8894 59.7295 38.0372 50.9096" stroke="#1D252C"/>
<circle r="14.1209" transform="matrix(-0.978481 -0.206338 -0.206338 0.978481 53.3232 26.7904)" fill="#FFBA2A" stroke="#1D252C"/>
<circle r="14.1209" transform="matrix(-0.978481 -0.206338 -0.206338 0.978481 54.3656 25.4777)" fill="url(#paint3_linear_2829_33112)" stroke="#1D252C"/>
<circle r="11.4843" transform="matrix(-0.978481 -0.206338 -0.206338 0.978481 54.366 25.4777)" fill="url(#paint4_linear_2829_33112)" stroke="#1D252C"/>
<path d="M85.4429 56.2503L107.437 59.9237C108.27 60.0628 108.923 60.7085 109.001 61.5494C109.242 64.1586 109.383 70.0459 106.737 75.8899C106.688 75.9972 106.638 76.1045 106.588 76.2117C94.2629 102.746 73.6698 109.607 63.5918 109.848C62.7387 109.869 62.0103 109.29 61.7635 108.473L54.4967 84.4193C54.2174 83.4949 55.3252 82.6754 56.1521 83.174C60.218 85.6259 68.7699 90.0045 78.7485 90.5613C88.8822 81.6921 85.5145 62.9821 84.262 57.5181C84.0976 56.801 84.7172 56.1291 85.4429 56.2503Z" fill="url(#paint5_linear_2829_33112)"/>
<path d="M78.7485 90.5613C68.7699 90.0045 60.218 85.6259 56.1521 83.174C55.3252 82.6754 54.2174 83.4949 54.4967 84.4193L61.7635 108.473C62.0103 109.29 62.7387 109.869 63.5918 109.848C73.7104 109.606 94.4291 102.691 106.737 75.8899M78.7485 90.5613C83.2744 90.8138 88.0938 90.2801 92.9212 88.4239C100.449 85.5293 104.547 80.7245 106.737 75.8899M78.7485 90.5613C88.8822 81.6921 85.5145 62.9821 84.262 57.5181C84.0976 56.801 84.7172 56.1291 85.4429 56.2503L107.437 59.9237C108.27 60.0628 108.923 60.7085 109.001 61.5494C109.242 64.1586 109.383 70.0459 106.737 75.8899" stroke="#1D252C" stroke-linejoin="round"/>
<ellipse cx="59.635" cy="89.2516" rx="1.73596" ry="2.35594" transform="rotate(-14.4097 59.635 89.2516)" fill="#99EDC5"/>
<ellipse cx="88.8005" cy="60.2629" rx="1.73596" ry="2.35594" transform="rotate(-83.53 88.8005 60.2629)" fill="#99EDC5"/>
<ellipse cx="104.595" cy="63.1786" rx="1.73596" ry="2.35594" transform="rotate(-83.53 104.595 63.1786)" fill="#99EDC5"/>
<ellipse cx="64.5569" cy="104.355" rx="2.11365" ry="2.86853" transform="rotate(-14.4097 64.5569 104.355)" fill="#99EDC5"/>
<path d="M85.8739 89.4648C83.0947 87.3724 83.5151 83.1911 86.5714 79.6676C89.6277 76.1442 94.8327 75.6536 98.1972 78.572C99.9303 80.0754 100.623 81.7456 100.802 83.1144C99.2358 85.2156 90.902 89.4783 85.8739 89.4648Z" fill="#99EDC5"/>
<path d="M40.2281 104.827L16.4901 89.5455C16.0963 89.2916 15.9408 88.7579 16.2258 88.3174L18.739 84.4103C18.9929 84.0165 19.5267 83.8611 19.9671 84.1461L43.7051 99.4273C44.0989 99.6812 44.2544 100.215 43.9694 100.655L41.4562 104.562C41.1712 104.998 40.6634 105.112 40.2281 104.827Z" fill="#FFBA2A" stroke="black" stroke-miterlimit="10" stroke-linecap="round" stroke-linejoin="round"/>
<path d="M36.9584 95.1522L34.2172 99.4065" stroke="#F8991D" stroke-miterlimit="10" stroke-linecap="round" stroke-linejoin="round"/>
<path d="M38.8496 98.479L36.3624 102.339" stroke="#F8991D" stroke-miterlimit="10" stroke-linecap="round" stroke-linejoin="round"/>
<path d="M42.0729 99.7434L39.7566 103.34" stroke="#F8991D" stroke-miterlimit="10" stroke-linecap="round" stroke-linejoin="round"/>
<path d="M43.161 100.075L41.2385 103.06" stroke="#F8991D" stroke-miterlimit="10" stroke-linecap="round" stroke-linejoin="round"/>
<path d="M40.2281 104.827L16.4901 89.5455C16.0963 89.2916 15.9408 88.7579 16.2258 88.3174L18.739 84.4103C18.9929 84.0165 19.5267 83.8611 19.9671 84.1461L43.7051 99.4273C44.0989 99.6812 44.2544 100.215 43.9694 100.655L41.4562 104.562C41.1712 104.998 40.6634 105.112 40.2281 104.827Z" stroke="black" stroke-miterlimit="10" stroke-linecap="round" stroke-linejoin="round"/>
<g opacity="0.38">
<path opacity="0.38" d="M20.5732 86.2808C20.4385 86.0062 20.7546 85.7108 21.0137 85.8818L43.9174 100.629L44.3682 99.9298L19.884 84.1667C19.4902 83.9128 18.9409 83.9957 18.6559 84.4309L16.1427 88.338C15.8888 88.7319 15.9717 89.2811 16.407 89.5661L40.1916 104.878C40.5855 105.132 41.1917 104.961 41.4197 104.614C26.6826 95.1107 22.0708 89.1619 20.5732 86.2808Z" fill="#F8991D"/>
</g>
</g>
<defs>
<linearGradient id="paint0_linear_2829_33112" x1="12.3839" y1="0" x2="12.3839" y2="24.7677" gradientUnits="userSpaceOnUse">
<stop stop-color="#FFBA2A"/>
<stop offset="1" stop-color="#FAD799"/>
</linearGradient>
<linearGradient id="paint1_linear_2829_33112" x1="1.3157" y1="2.70607" x2="17.667" y2="18.7337" gradientUnits="userSpaceOnUse">
<stop stop-color="#FAD799"/>
<stop offset="1" stop-color="#FFBA2A"/>
</linearGradient>
<linearGradient id="paint2_linear_2829_33112" x1="21.5399" y1="19.6843" x2="51.662" y2="78.5536" gradientUnits="userSpaceOnUse">
<stop stop-color="#00C9A7"/>
<stop offset="1" stop-color="#99EDC5"/>
</linearGradient>
<linearGradient id="paint3_linear_2829_33112" x1="14.6209" y1="0" x2="14.6209" y2="29.2418" gradientUnits="userSpaceOnUse">
<stop stop-color="#FFBA2A"/>
<stop offset="1" stop-color="#FAD799"/>
</linearGradient>
<linearGradient id="paint4_linear_2829_33112" x1="11.9843" y1="0" x2="11.9843" y2="23.9686" gradientUnits="userSpaceOnUse">
<stop stop-color="#FFBA2A"/>
<stop offset="1" stop-color="#FAD799"/>
</linearGradient>
<linearGradient id="paint5_linear_2829_33112" x1="56.8743" y1="73.4567" x2="100.63" y2="91.0953" gradientUnits="userSpaceOnUse">
<stop stop-color="#00C9A7"/>
<stop offset="1" stop-color="#99EDC5"/>
</linearGradient>
<clipPath id="clip0_2829_33112">
<rect width="120" height="120" fill="white"/>
</clipPath>
</defs>
</svg>
