<svg width="120" height="120" viewBox="0 0 120 120" fill="none" xmlns="http://www.w3.org/2000/svg">
<g clip-path="url(#clip0_2829_33151)">
<rect width="120" height="120" fill="white"/>
<rect width="120" height="120" rx="32" fill="#F3F3F3"/>
<path d="M81.1469 71.058L81.4137 70.6352L81.1469 71.058ZM76.2635 72.7178L76.6165 73.0719L77.3247 72.3659L76.9717 72.0118L76.2635 72.7178ZM81.4137 70.6352C80.2381 69.8935 79.216 69.4738 78.3611 69.307C77.5119 69.1414 76.7847 69.2185 76.2514 69.5337C75.6977 69.8609 75.4136 70.4124 75.4348 71.0215C75.4552 71.6106 75.7557 72.2084 76.2635 72.7178L76.9717 72.0118C76.5911 71.63 76.4436 71.2593 76.4342 70.9868C76.4254 70.7342 76.5296 70.5309 76.7602 70.3946C77.0113 70.2462 77.4645 70.151 78.1697 70.2885C78.8692 70.425 79.7754 70.7839 80.8801 71.4809L81.4137 70.6352ZM80.8801 71.4809C81.6047 71.9381 82.3697 72.3542 83.0988 72.7688C83.8357 73.1877 84.5474 73.6111 85.2065 74.1002C86.5127 75.0695 87.609 76.2936 88.2115 78.2255L89.1662 77.9277C88.4861 75.7472 87.2349 74.3601 85.8024 73.2972C85.0922 72.7702 84.3368 72.3223 83.5931 71.8994C82.8416 71.4722 82.1125 71.076 81.4137 70.6352L80.8801 71.4809Z" fill="#1D252C"/>
<mask id="path-3-inside-1_2829_33151" fill="white">
<path fill-rule="evenodd" clip-rule="evenodd" d="M61.5227 94.6807C63.1098 95.6674 65.1091 95.7084 66.7353 94.7876L88.8115 82.2873C90.3223 81.4318 91.2951 79.8672 91.3938 78.1337L92.836 52.8053C92.9423 50.9394 92.0209 49.1646 90.4338 48.1779L44.5013 19.6214C42.106 18.1322 38.957 18.8668 37.4679 21.262L13.9495 59.0908C12.4603 61.4861 13.1949 64.635 15.5902 66.1242L53.7927 89.8749L61.5227 94.6807ZM81.574 67.5811C78.5096 65.676 74.481 66.6157 72.5758 69.6802C70.6706 72.7446 71.6104 76.7732 74.6748 78.6784C77.7392 80.5836 81.7679 79.6438 83.673 76.5794C85.5782 73.515 84.6385 69.4863 81.574 67.5811Z"/>
</mask>
<path fill-rule="evenodd" clip-rule="evenodd" d="M61.5227 94.6807C63.1098 95.6674 65.1091 95.7084 66.7353 94.7876L88.8115 82.2873C90.3223 81.4318 91.2951 79.8672 91.3938 78.1337L92.836 52.8053C92.9423 50.9394 92.0209 49.1646 90.4338 48.1779L44.5013 19.6214C42.106 18.1322 38.957 18.8668 37.4679 21.262L13.9495 59.0908C12.4603 61.4861 13.1949 64.635 15.5902 66.1242L53.7927 89.8749L61.5227 94.6807ZM81.574 67.5811C78.5096 65.676 74.481 66.6157 72.5758 69.6802C70.6706 72.7446 71.6104 76.7732 74.6748 78.6784C77.7392 80.5836 81.7679 79.6438 83.673 76.5794C85.5782 73.515 84.6385 69.4863 81.574 67.5811Z" fill="#1D252C"/>
<path d="M66.7353 94.7876L66.2426 93.9174L66.7353 94.7876ZM61.5227 94.6807L62.0506 93.8315L61.5227 94.6807ZM88.8115 82.2873L89.3042 83.1575L88.8115 82.2873ZM91.3938 78.1337L92.3922 78.1906V78.1906L91.3938 78.1337ZM92.836 52.8053L91.8376 52.7484V52.7484L92.836 52.8053ZM90.4338 48.1779L90.9618 47.3286V47.3286L90.4338 48.1779ZM44.5013 19.6214L43.9733 20.4706V20.4706L44.5013 19.6214ZM37.4679 21.262L36.6186 20.7341V20.7341L37.4679 21.262ZM13.9495 59.0908L13.1002 58.5628H13.1002L13.9495 59.0908ZM15.5902 66.1242L15.0622 66.9735H15.0622L15.5902 66.1242ZM53.7927 89.8749L54.3206 89.0257H54.3206L53.7927 89.8749ZM72.5758 69.6802L73.425 70.2081L72.5758 69.6802ZM81.574 67.5811L81.046 68.4304L81.574 67.5811ZM74.6748 78.6784L75.2028 77.8292L74.6748 78.6784ZM83.673 76.5794L84.5223 77.1074L83.673 76.5794ZM66.2426 93.9174C64.9348 94.6579 63.327 94.625 62.0506 93.8315L60.9947 95.53C62.8926 96.7099 65.2834 96.7589 67.228 95.6578L66.2426 93.9174ZM88.3187 81.4171L66.2426 93.9174L67.228 95.6578L89.3042 83.1575L88.3187 81.4171ZM90.3954 78.0769C90.316 79.4709 89.5338 80.7292 88.3187 81.4171L89.3042 83.1575C91.1109 82.1345 92.2741 80.2635 92.3922 78.1906L90.3954 78.0769ZM91.8376 52.7484L90.3954 78.0769L92.3922 78.1906L93.8344 52.8621L91.8376 52.7484ZM89.9058 49.0272C91.1821 49.8207 91.9231 51.2479 91.8376 52.7484L93.8344 52.8621C93.9615 50.6309 92.8596 48.5086 90.9618 47.3286L89.9058 49.0272ZM43.9733 20.4706L89.9058 49.0272L90.9618 47.3286L45.0293 18.7721L43.9733 20.4706ZM38.3171 21.79C39.5147 19.8638 42.047 19.2731 43.9733 20.4706L45.0293 18.7721C42.165 16.9914 38.3994 17.8697 36.6186 20.7341L38.3171 21.79ZM14.7987 59.6188L38.3171 21.79L36.6186 20.7341L13.1002 58.5628L14.7987 59.6188ZM16.1182 65.2749C14.1919 64.0774 13.6012 61.545 14.7987 59.6188L13.1002 58.5628C11.3195 61.4271 12.1979 65.1927 15.0622 66.9735L16.1182 65.2749ZM54.3206 89.0257L16.1182 65.2749L15.0622 66.9735L53.2647 90.7242L54.3206 89.0257ZM62.0506 93.8315L54.3206 89.0257L53.2647 90.7242L60.9947 95.53L62.0506 93.8315ZM73.425 70.2081C75.0386 67.6127 78.4507 66.8168 81.046 68.4304L82.102 66.7319C78.5686 64.5351 73.9233 65.6187 71.7265 69.1522L73.425 70.2081ZM75.2028 77.8292C72.6074 76.2156 71.8115 72.8035 73.425 70.2081L71.7265 69.1522C69.5298 72.6856 70.6134 77.3309 74.1468 79.5277L75.2028 77.8292ZM82.8238 76.0514C81.2102 78.6468 77.7982 79.4427 75.2028 77.8292L74.1468 79.5277C77.6803 81.7244 82.3255 80.6408 84.5223 77.1074L82.8238 76.0514ZM81.046 68.4304C83.6414 70.044 84.4374 73.456 82.8238 76.0514L84.5223 77.1074C86.7191 73.5739 85.6355 68.9287 82.102 66.7319L81.046 68.4304Z" fill="#1D252C" mask="url(#path-3-inside-1_2829_33151)"/>
<mask id="path-5-inside-2_2829_33151" fill="white">
<path fill-rule="evenodd" clip-rule="evenodd" d="M59.2696 90.7557C60.8567 91.7425 62.8561 91.7835 64.4823 90.8626L86.5584 78.3624C88.0693 77.5068 89.042 75.9423 89.1407 74.2088L90.583 48.8803C90.6892 47.0145 89.7678 45.2396 88.1807 44.2529L42.2482 15.6964C39.853 14.2072 36.704 14.9418 35.2149 17.3371L11.6965 55.1658C10.2073 57.5611 10.9419 60.7101 13.3371 62.1992L51.5396 85.95L59.2696 90.7557ZM79.321 63.6562C76.2566 61.751 72.2279 62.6907 70.3227 65.7552C68.4176 68.8196 69.3573 72.8483 72.4218 74.7534C75.4862 76.6586 79.5148 75.7188 81.42 72.6544C83.3252 69.59 82.3854 65.5613 79.321 63.6562Z"/>
</mask>
<path fill-rule="evenodd" clip-rule="evenodd" d="M59.2696 90.7557C60.8567 91.7425 62.8561 91.7835 64.4823 90.8626L86.5584 78.3624C88.0693 77.5068 89.042 75.9423 89.1407 74.2088L90.583 48.8803C90.6892 47.0145 89.7678 45.2396 88.1807 44.2529L42.2482 15.6964C39.853 14.2072 36.704 14.9418 35.2149 17.3371L11.6965 55.1658C10.2073 57.5611 10.9419 60.7101 13.3371 62.1992L51.5396 85.95L59.2696 90.7557ZM79.321 63.6562C76.2566 61.751 72.2279 62.6907 70.3227 65.7552C68.4176 68.8196 69.3573 72.8483 72.4218 74.7534C75.4862 76.6586 79.5148 75.7188 81.42 72.6544C83.3252 69.59 82.3854 65.5613 79.321 63.6562Z" fill="url(#paint0_linear_2829_33151)"/>
<path d="M64.4823 90.8626L64.975 91.7328L64.975 91.7328L64.4823 90.8626ZM59.2696 90.7557L58.7416 91.605L59.2696 90.7557ZM86.5584 78.3624L86.0657 77.4922L86.5584 78.3624ZM89.1407 74.2088L88.1423 74.1519L89.1407 74.2088ZM90.583 48.8803L91.5814 48.9371L90.583 48.8803ZM13.3371 62.1992L12.8091 63.0485L13.3371 62.1992ZM51.5396 85.95L52.0676 85.1007L51.5396 85.95ZM63.9895 89.9925C62.6818 90.733 61.0739 90.7 59.7976 89.9065L58.7416 91.605C60.6395 92.7849 63.0303 92.834 64.975 91.7328L63.9895 89.9925ZM86.0657 77.4922L63.9895 89.9925L64.975 91.7328L87.0511 79.2325L86.0657 77.4922ZM88.1423 74.1519C88.063 75.546 87.2807 76.8042 86.0657 77.4922L87.0511 79.2325C88.8579 78.2095 90.0211 76.3385 90.1391 74.2656L88.1423 74.1519ZM89.5846 48.8234L88.1423 74.1519L90.1391 74.2656L91.5814 48.9371L89.5846 48.8234ZM87.6527 45.1022C88.9291 45.8957 89.67 47.323 89.5846 48.8234L91.5814 48.9371C91.7084 46.706 90.6066 44.5836 88.7087 43.4037L87.6527 45.1022ZM41.7202 16.5456L87.6527 45.1022L88.7087 43.4037L42.7762 14.8471L41.7202 16.5456ZM36.0641 17.865C37.2617 15.9388 39.794 15.3481 41.7202 16.5456L42.7762 14.8471C39.9119 13.0664 36.1464 13.9448 34.3656 16.8091L36.0641 17.865ZM12.5457 55.6938L36.0641 17.865L34.3656 16.8091L10.8472 54.6378L12.5457 55.6938ZM13.8651 61.35C11.9389 60.1524 11.3482 57.6201 12.5457 55.6938L10.8472 54.6378C9.06645 57.5022 9.94484 61.2677 12.8091 63.0485L13.8651 61.35ZM52.0676 85.1007L13.8651 61.35L12.8091 63.0485L51.0116 86.7992L52.0676 85.1007ZM59.7976 89.9065L52.0676 85.1007L51.0116 86.7992L58.7416 91.605L59.7976 89.9065ZM71.172 66.2832C72.7856 63.6878 76.1976 62.8918 78.793 64.5054L79.849 62.8069C76.3155 60.6101 71.6703 61.6937 69.4735 65.2272L71.172 66.2832ZM72.9497 73.9042C70.3543 72.2906 69.5584 68.8786 71.172 66.2832L69.4735 65.2272C67.2767 68.7606 68.3603 73.4059 71.8938 75.6027L72.9497 73.9042ZM80.5708 72.1264C78.9572 74.7218 75.5451 75.5178 72.9497 73.9042L71.8938 75.6027C75.4272 77.7995 80.0725 76.7159 82.2693 73.1824L80.5708 72.1264ZM78.793 64.5054C81.3884 66.119 82.1843 69.531 80.5708 72.1264L82.2693 73.1824C84.466 69.6489 83.3824 65.0037 79.849 62.8069L78.793 64.5054Z" fill="#1D252C" mask="url(#path-5-inside-2_2829_33151)"/>
<circle cx="45.2216" cy="50.1498" r="20.3451" transform="rotate(-148.131 45.2216 50.1498)" fill="white" stroke="#1D252C"/>
<path d="M36.1863 62.6145L36.5857 62.8826C37.1182 63.24 37.8523 63.1534 38.2544 62.5544L39.5721 60.7353C39.7062 60.5356 40.0399 60.4699 40.2843 60.5374C42.3487 61.6336 44.3046 61.8844 46.0846 61.5343C47.8645 61.1842 49.3354 60.1439 50.4297 58.6576C51.7027 56.9051 52.0192 55.2829 51.6244 53.5695C51.2515 51.9674 50.078 50.4071 48.6155 48.846C48.4605 48.6454 48.4614 48.3563 48.5955 48.1566L50.8068 45.0062C50.8962 44.8731 51.0521 44.7847 51.1634 44.7628C51.2746 44.7409 51.4078 44.8303 51.4296 44.9415C51.85 45.6099 51.8253 46.3659 51.5782 47.1655C51.3985 47.7209 51.5079 48.2771 52.0404 48.6346L54.3255 50.2651C54.9245 50.6672 55.7033 50.5141 56.0389 49.8703C56.7775 48.3384 56.9381 46.8047 56.5871 45.3138C56.2361 43.8229 55.3954 42.4861 54.1097 41.2368C53.8882 40.9915 53.8891 40.7024 54.0231 40.5027L54.6934 39.5043C55.0509 38.9718 54.9643 38.2377 54.3652 37.8356L53.9658 37.5675C53.4333 37.21 52.6993 37.2966 52.2971 37.8957L51.6715 38.8276C51.5375 39.0272 51.2037 39.0929 50.9594 39.0254C47.23 37.1012 43.4704 37.6673 41.393 40.618C40.2094 42.2374 39.7817 43.8815 40.0433 45.5055C40.3049 47.1295 41.3672 48.7116 42.9628 50.3622C43.1178 50.5628 43.1169 50.8518 42.9829 51.0515L40.5034 54.6013C40.3247 54.8675 39.969 54.8219 39.814 54.6213C39.4156 54.0641 39.2615 53.5745 39.2187 53.0629C39.1758 52.5514 39.3555 51.996 39.6017 51.4854C39.8479 50.9748 39.7166 50.3073 39.1841 49.9498L36.766 48.23C36.1669 47.8278 35.3882 47.981 35.0526 48.6247C34.2692 50.2232 33.9527 51.8454 34.2809 53.5141C34.6091 55.1828 35.5601 56.7868 37.2671 58.4154C37.4886 58.6607 37.4877 58.9498 37.3537 59.1495L36.0359 60.9686C35.5007 61.4783 35.5873 62.2123 36.1863 62.6145ZM45.7425 43.3446C46.234 42.6124 47.1468 42.2596 48.324 42.6636C48.5683 42.7311 48.6787 42.9983 48.4552 43.3311L46.5566 46.0155C46.3779 46.2817 45.9776 46.3027 45.8226 46.1021C45.3576 45.5002 45.2701 45.0553 45.2491 44.6549C45.2281 44.2546 45.385 43.8771 45.7425 43.3446ZM45.7018 56.0632C45.1209 56.9285 44.0303 57.2585 42.875 56.9658C42.6972 56.943 42.6753 56.8318 42.6535 56.7205C42.6316 56.6093 42.6544 56.4314 42.7437 56.2983L44.8658 53.2811C45.0445 53.0148 45.4448 52.9939 45.5998 53.1945C46.0648 53.7963 46.2189 54.286 46.2399 54.6863C46.2161 55.1532 46.1258 55.5754 45.7018 56.0632Z" fill="#FFBA2A" stroke="#1D252C"/>
<path d="M76.6174 72.3652C78.6267 74.5522 84.6377 76.5471 87.9851 76.5223" stroke="#1D252C"/>
<path d="M87.9852 76.1053C89.9975 81.2472 101.968 93.2388 109.026 85.165C117.726 75.215 106.488 68.1828 101.812 74.1415C98.2569 78.6715 103.917 87.4077 115.776 86.9703C126.275 86.5831 145.487 70.1195 149.386 64.6019" stroke="#1D252C"/>
</g>
<defs>
<linearGradient id="paint0_linear_2829_33151" x1="41.4618" y1="79.6845" x2="70.373" y2="33.1817" gradientUnits="userSpaceOnUse">
<stop stop-color="#FFBA2A"/>
<stop offset="1" stop-color="#FAD799"/>
</linearGradient>
<clipPath id="clip0_2829_33151">
<rect width="120" height="120" fill="white"/>
</clipPath>
</defs>
</svg>
