<svg width="120" height="120" viewBox="0 0 120 120" fill="none" xmlns="http://www.w3.org/2000/svg">
<rect width="120" height="120" fill="white"/>
<rect width="120" height="120" rx="32" fill="#F3F3F3"/>
<path d="M82.0343 107.348L82.0347 107.348C82.9556 107.287 83.7761 106.893 84.516 106.36C85.2531 105.829 85.94 105.138 86.5921 104.446C86.7592 104.269 86.9236 104.092 87.0863 103.917C87.57 103.396 88.0391 102.892 88.5218 102.438C89.1644 101.834 89.7888 101.363 90.4275 101.106C91.0742 100.846 91.8552 100.753 92.7378 100.744C93.4112 100.737 94.1105 100.778 94.8305 100.821C95.0573 100.835 95.2862 100.849 95.5169 100.861C96.4636 100.911 97.4334 100.938 98.3284 100.815C99.2265 100.693 100.087 100.416 100.791 99.8292C101.49 99.2487 101.915 98.4554 102.197 97.5972C102.478 96.7419 102.629 95.784 102.753 94.8428C102.782 94.6221 102.81 94.4029 102.837 94.1853C102.929 93.4586 103.018 92.7512 103.152 92.0782C103.325 91.2065 103.563 90.4463 103.941 89.8463L103.942 89.846C104.302 89.2725 104.872 88.7501 105.579 88.2312C106.1 87.8479 106.668 87.486 107.256 87.1118C107.467 86.9773 107.68 86.8414 107.895 86.7022C108.692 86.1853 109.496 85.6314 110.153 84.9953C110.813 84.3566 111.35 83.6115 111.581 82.7045C111.811 81.7975 111.695 80.8862 111.421 80.01C111.147 79.1373 110.706 78.2668 110.252 77.4316C110.13 77.2069 110.007 76.9855 109.886 76.7666C109.549 76.1573 109.222 75.568 108.947 74.9821C108.574 74.1888 108.323 73.4577 108.28 72.7816L108.28 72.7812C108.234 72.0734 108.388 71.2917 108.652 70.4433C108.857 69.7882 109.116 69.124 109.383 68.4418C109.462 68.2375 109.543 68.0317 109.623 67.8239C109.963 66.9376 110.288 66.0241 110.45 65.1385C110.612 64.2498 110.617 63.3498 110.28 62.5059C109.942 61.6557 109.317 61.0016 108.587 60.4652C107.859 59.9307 106.995 59.4908 106.139 59.0826C105.931 58.9835 105.725 58.8865 105.52 58.7903C104.866 58.4834 104.231 58.1853 103.642 57.8569C102.871 57.4272 102.229 56.9718 101.785 56.4349C101.347 55.9038 101.023 55.1914 100.746 54.3535C100.538 53.7236 100.367 53.0551 100.19 52.3658C100.13 52.1351 100.071 51.902 100.009 51.6673C99.7659 50.7478 99.4921 49.8131 99.0984 48.9948C98.7032 48.1735 98.1713 47.4353 97.3927 46.9421L97.3921 46.9417C96.6329 46.4621 95.755 46.309 94.8596 46.3105C93.9671 46.312 93.0153 46.4677 92.0855 46.6418C91.8832 46.6797 91.6823 46.7183 91.4826 46.7568C90.7488 46.8979 90.0326 47.0358 89.3352 47.1177C88.4507 47.2217 87.6474 47.2283 86.9489 47.0507C86.2504 46.8731 85.5478 46.4836 84.8204 45.9699C84.2467 45.5647 83.6833 45.1016 83.1061 44.6271C82.949 44.498 82.7909 44.368 82.6313 44.2382C81.8975 43.6411 81.1357 43.0497 80.3523 42.6222C79.5663 42.1932 78.7219 41.9084 77.8258 41.9671L77.8254 41.9671C76.9045 42.0282 76.084 42.4225 75.3442 42.9553C74.607 43.4862 73.9201 44.1768 73.268 44.8688C73.1009 45.0461 72.9366 45.2229 72.7739 45.398C72.2902 45.9185 71.821 46.4234 71.3384 46.877C70.6957 47.4811 70.0712 47.9522 69.4324 48.2094C68.7857 48.4689 68.0048 48.5623 67.1223 48.5713C66.4489 48.5781 65.7496 48.5365 65.0297 48.4936C64.8029 48.4801 64.574 48.4665 64.3432 48.4542C63.3965 48.4039 62.4268 48.3772 61.5317 48.4995C60.6335 48.6222 59.7725 48.8994 59.0685 49.4861C58.3698 50.0666 57.9447 50.8597 57.6628 51.7178C57.3819 52.5731 57.2313 53.531 57.107 54.4722C57.0778 54.6928 57.0501 54.9121 57.0227 55.1297C56.931 55.8563 56.8417 56.5638 56.7082 57.2368C56.5352 58.1085 56.2969 58.8687 55.9187 59.4687L55.9185 59.469C55.5576 60.0425 54.988 60.5649 54.2816 61.0838C53.7599 61.4671 53.1917 61.8291 52.6044 62.2033C52.3934 62.3377 52.18 62.4736 51.9653 62.6127C51.1677 63.1297 50.364 63.6836 49.7069 64.3197C49.0472 64.9584 48.5098 65.7035 48.2793 66.6105C48.0487 67.5175 48.1648 68.4288 48.4394 69.305C48.713 70.1777 49.1545 71.0482 49.6084 71.8834C49.7305 72.1081 49.8531 72.3295 49.9742 72.5483C50.3115 73.1576 50.6378 73.747 50.9131 74.3329C51.2859 75.1262 51.5369 75.8573 51.58 76.5334L51.58 76.5338C51.6257 77.2416 51.472 78.0232 51.2077 78.8717C51.0036 79.5268 50.7441 80.191 50.4776 80.8732C50.3978 81.0774 50.3174 81.2833 50.2376 81.4911C49.8973 82.3774 49.5721 83.2909 49.4105 84.1765C49.2483 85.0652 49.2429 85.9652 49.5798 86.8091C49.9184 87.6593 50.5427 88.3134 51.2731 88.8498C52.001 89.3843 52.8656 89.8242 53.7212 90.2324C53.9289 90.3315 54.1356 90.4285 54.3404 90.5247C54.9943 90.8316 55.6294 91.1297 56.2185 91.4581C56.9895 91.8879 57.6311 92.3434 58.0754 92.8805C58.5137 93.4115 58.8376 94.1238 59.1141 94.9615C59.322 95.5913 59.4936 96.2599 59.6705 96.9492C59.7297 97.1799 59.7895 97.413 59.8515 97.6477C60.0942 98.5672 60.368 99.5019 60.7618 100.32C61.157 101.142 61.6888 101.88 62.4674 102.373L62.4678 102.373C63.2259 102.853 64.1033 103.005 64.9984 103.004C65.8906 103.002 66.8425 102.847 67.7726 102.673C67.9745 102.635 68.1751 102.596 68.3744 102.558C69.109 102.417 69.826 102.279 70.5241 102.197C71.409 102.093 72.2127 102.087 72.9112 102.264C73.6097 102.442 74.3124 102.831 75.0398 103.345C75.6134 103.75 76.1768 104.213 76.754 104.688C76.9111 104.817 77.0692 104.947 77.2288 105.077C77.9626 105.674 78.7244 106.265 79.5078 106.693C80.2938 107.122 81.1382 107.407 82.0343 107.348Z" fill="url(#paint0_linear_2829_33098)" stroke="#1D252C"/>
<mask id="path-3-outside-1_2829_33098" maskUnits="userSpaceOnUse" x="61.3228" y="56.0651" width="37.7499" height="37.7499" fill="black">
<rect fill="white" x="61.3228" y="56.0651" width="37.7499" height="37.7499"/>
<path fill-rule="evenodd" clip-rule="evenodd" d="M87.8091 87.1095C90.9347 85.1481 88.9015 81.9081 88.9015 81.9081L85.289 76.1514L91.2445 72.4141C92.9815 71.3383 93.498 69.0812 92.4019 67.3571C91.3057 65.6329 89.0219 65.1102 87.2849 66.186L81.3662 69.9002L77.6428 63.9668C76.567 62.2299 74.31 61.7134 72.5858 62.8095C70.8617 63.9057 70.339 66.1895 71.4148 67.9265L75.115 73.823L69.3495 77.441C69.3495 77.441 66.1405 79.4548 68.1019 82.5804C70.0633 85.7059 73.3033 83.6727 73.3033 83.6727L79.0378 80.0741L82.6698 85.8619C82.6698 85.8619 84.6835 89.0709 87.8091 87.1095Z"/>
</mask>
<path fill-rule="evenodd" clip-rule="evenodd" d="M87.8091 87.1095C90.9347 85.1481 88.9015 81.9081 88.9015 81.9081L85.289 76.1514L91.2445 72.4141C92.9815 71.3383 93.498 69.0812 92.4019 67.3571C91.3057 65.6329 89.0219 65.1102 87.2849 66.186L81.3662 69.9002L77.6428 63.9668C76.567 62.2299 74.31 61.7134 72.5858 62.8095C70.8617 63.9057 70.339 66.1895 71.4148 67.9265L75.115 73.823L69.3495 77.441C69.3495 77.441 66.1405 79.4548 68.1019 82.5804C70.0633 85.7059 73.3033 83.6727 73.3033 83.6727L79.0378 80.0741L82.6698 85.8619C82.6698 85.8619 84.6835 89.0709 87.8091 87.1095Z" fill="white"/>
<path d="M88.9015 81.9081L88.3661 82.2441L88.9015 81.9081ZM87.8091 87.1095L88.1451 87.6449L87.8091 87.1095ZM85.289 76.1514L84.953 75.6159L84.4175 75.9519L84.7535 76.4874L85.289 76.1514ZM91.2445 72.4141L90.9117 71.8766L90.9085 71.8786L91.2445 72.4141ZM92.4019 67.3571L92.9353 67.0179L92.9353 67.0179L92.4019 67.3571ZM87.2849 66.186L86.9521 65.6486L86.9489 65.6506L87.2849 66.186ZM81.3662 69.9002L80.8307 70.2362L81.1667 70.7716L81.7022 70.4356L81.3662 69.9002ZM77.6428 63.9668L77.1054 64.2997L77.1074 64.3028L77.6428 63.9668ZM72.5858 62.8095L72.2467 62.2761L72.5858 62.8095ZM71.4148 67.9265L70.8774 68.2593L70.8793 68.2624L71.4148 67.9265ZM75.115 73.823L75.451 74.3584L75.9865 74.0224L75.6505 73.487L75.115 73.823ZM69.3495 77.441L69.6855 77.9765L69.6855 77.9765L69.3495 77.441ZM68.1019 82.5804L68.6373 82.2444L68.1019 82.5804ZM73.3033 83.6727L72.9673 83.1373L73.3033 83.6727ZM79.0378 80.0741L79.5732 79.7381L79.2372 79.2027L78.7018 79.5387L79.0378 80.0741ZM82.6698 85.8619L83.2052 85.5259L83.2052 85.5259L82.6698 85.8619ZM88.9015 81.9081C88.3661 82.2441 88.3659 82.2439 88.3658 82.2437C88.3657 82.2436 88.3656 82.2434 88.3655 82.2433C88.3654 82.243 88.3653 82.2428 88.3652 82.2427C88.365 82.2424 88.3649 82.2423 88.365 82.2424C88.3651 82.2425 88.3656 82.2435 88.3666 82.2451C88.3686 82.2484 88.3724 82.2546 88.3776 82.2636C88.3881 82.2816 88.4046 82.3106 88.4255 82.3496C88.4673 82.4277 88.526 82.5446 88.5884 82.6918C88.7144 82.989 88.8491 83.3943 88.8992 83.8433C88.949 84.2902 88.9134 84.764 88.7176 85.2199C88.5242 85.67 88.1568 86.1451 87.4731 86.5741L88.1451 87.6449C89.0242 87.0932 89.5747 86.4277 89.8792 85.7188C90.1813 85.0155 90.2234 84.3116 90.1556 83.7033C90.0881 83.0971 89.9099 82.5698 89.7523 82.1983C89.673 82.0111 89.5972 81.8595 89.54 81.7528C89.5114 81.6993 89.4873 81.6568 89.4695 81.6264C89.4606 81.6112 89.4533 81.5989 89.4478 81.5899C89.4451 81.5853 89.4428 81.5816 89.4409 81.5786C89.44 81.5771 89.4392 81.5758 89.4386 81.5748C89.4382 81.5742 89.4379 81.5737 89.4377 81.5733C89.4375 81.5731 89.4373 81.5728 89.4373 81.5727C89.4371 81.5724 89.4369 81.5721 88.9015 81.9081ZM84.7535 76.4874L88.3661 82.2441L89.4369 81.5721L85.8244 75.8154L84.7535 76.4874ZM90.9085 71.8786L84.953 75.6159L85.625 76.6868L91.5805 72.9495L90.9085 71.8786ZM91.8684 67.6962C92.7757 69.1233 92.3494 70.9862 90.9117 71.8767L91.5774 72.9515C93.6136 71.6903 94.2203 69.0391 92.9353 67.0179L91.8684 67.6962ZM87.6178 66.7234C89.0604 65.8299 90.958 66.2642 91.8684 67.6962L92.9353 67.0179C91.6534 65.0016 88.9834 64.3906 86.9521 65.6486L87.6178 66.7234ZM81.7022 70.4356L87.6209 66.7214L86.9489 65.6506L81.0302 69.3648L81.7022 70.4356ZM77.1074 64.3028L80.8307 70.2362L81.9016 69.5642L78.1782 63.6309L77.1074 64.3028ZM72.9249 63.343C74.352 62.4357 76.215 62.862 77.1054 64.2997L78.1802 63.634C76.9191 61.5978 74.2679 60.991 72.2467 62.2761L72.9249 63.343ZM71.9522 67.5936C71.0587 66.151 71.493 64.2534 72.9249 63.343L72.2467 62.2761C70.2304 63.558 69.6193 66.228 70.8774 68.2593L71.9522 67.5936ZM75.6505 73.487L71.9502 67.5905L70.8793 68.2624L74.5796 74.159L75.6505 73.487ZM69.6855 77.9765L75.451 74.3584L74.779 73.2876L69.0135 76.9056L69.6855 77.9765ZM68.6373 82.2444C68.2076 81.5596 68.0815 80.9722 68.101 80.4839C68.1207 79.9898 68.2915 79.5504 68.5267 79.1729C68.7631 78.7934 69.0566 78.4899 69.2962 78.2792C69.4148 78.1749 69.5172 78.096 69.5878 78.0445C69.6231 78.0188 69.6502 78.0001 69.6672 77.9887C69.6756 77.9829 69.6816 77.979 69.6847 77.977C69.6863 77.976 69.6872 77.9754 69.6873 77.9753C69.6874 77.9753 69.6873 77.9753 69.687 77.9755C69.6868 77.9756 69.6866 77.9758 69.6864 77.9759C69.6863 77.976 69.6861 77.9761 69.686 77.9762C69.6858 77.9763 69.6855 77.9765 69.3495 77.441C69.0135 76.9056 69.0133 76.9058 69.013 76.9059C69.0129 76.906 69.0126 76.9062 69.0124 76.9063C69.0119 76.9066 69.0114 76.9069 69.0109 76.9073C69.0098 76.9079 69.0085 76.9088 69.0071 76.9097C69.0041 76.9116 69.0004 76.9139 68.996 76.9168C68.9871 76.9226 68.9753 76.9304 68.9608 76.9402C68.9317 76.9597 68.8918 76.9874 68.8431 77.0228C68.7459 77.0937 68.6129 77.1965 68.4613 77.3298C68.1605 77.5944 67.7743 77.9897 67.4537 78.5043C67.1318 79.0209 66.8681 79.671 66.8377 80.4336C66.8071 81.2019 67.0155 82.0383 67.5665 82.9164L68.6373 82.2444ZM73.3033 83.6727C72.9673 83.1373 72.9675 83.1372 72.9677 83.137C72.9678 83.137 72.968 83.1369 72.9681 83.1368C72.9684 83.1366 72.9686 83.1365 72.9687 83.1364C72.969 83.1362 72.9691 83.1362 72.969 83.1362C72.9688 83.1363 72.9679 83.1369 72.9663 83.1379C72.963 83.1399 72.9568 83.1436 72.9478 83.1489C72.9298 83.1594 72.9008 83.1759 72.8618 83.1967C72.7837 83.2386 72.6668 83.2972 72.5196 83.3596C72.2224 83.4856 71.8171 83.6204 71.3681 83.6704C70.9212 83.7202 70.4474 83.6846 69.9915 83.4888C69.5414 83.2955 69.0663 82.928 68.6373 82.2444L67.5665 82.9164C68.1181 83.7955 68.7836 84.346 69.4926 84.6505C70.1959 84.9525 70.8998 84.9947 71.5081 84.9269C72.1143 84.8593 72.6416 84.6811 73.0131 84.5236C73.2003 84.4442 73.3519 84.3684 73.4586 84.3113C73.5121 84.2826 73.5546 84.2585 73.585 84.2408C73.6002 84.2319 73.6125 84.2246 73.6215 84.2191C73.6261 84.2163 73.6298 84.214 73.6328 84.2122C73.6343 84.2113 73.6356 84.2105 73.6366 84.2098C73.6372 84.2095 73.6377 84.2092 73.6381 84.2089C73.6383 84.2088 73.6386 84.2086 73.6387 84.2085C73.639 84.2083 73.6393 84.2082 73.3033 83.6727ZM78.7018 79.5387L72.9673 83.1373L73.6393 84.2082L79.3738 80.6096L78.7018 79.5387ZM83.2052 85.5259L79.5732 79.7381L78.5024 80.4101L82.1344 86.1979L83.2052 85.5259ZM87.4731 86.5741C86.7884 87.0038 86.2009 87.1298 85.7126 87.1104C85.2186 87.0907 84.7792 86.9199 84.4016 86.6847C84.0221 86.4482 83.7186 86.1548 83.5079 85.9152C83.4036 85.7966 83.3247 85.6942 83.2732 85.6236C83.2475 85.5883 83.2289 85.5612 83.2174 85.5442C83.2117 85.5357 83.2078 85.5298 83.2057 85.5267C83.2047 85.5251 83.2042 85.5242 83.2041 85.5241C83.204 85.524 83.2041 85.5241 83.2043 85.5244C83.2044 85.5246 83.2045 85.5248 83.2047 85.525C83.2047 85.5251 83.2049 85.5253 83.2049 85.5254C83.2051 85.5256 83.2052 85.5259 82.6698 85.8619C82.1344 86.1979 82.1345 86.1981 82.1347 86.1984C82.1348 86.1985 82.135 86.1988 82.1351 86.199C82.1354 86.1995 82.1357 86.2 82.136 86.2005C82.1367 86.2016 82.1375 86.2029 82.1384 86.2043C82.1403 86.2072 82.1427 86.2109 82.1456 86.2154C82.1513 86.2243 82.1591 86.2361 82.1689 86.2506C82.1885 86.2797 82.2161 86.3196 82.2516 86.3683C82.3224 86.4655 82.4253 86.5985 82.5586 86.7501C82.8232 87.0509 83.2185 87.4371 83.7331 87.7577C84.2497 88.0796 84.8998 88.3433 85.6623 88.3736C86.4307 88.4042 87.2671 88.1959 88.1451 87.6449L87.4731 86.5741Z" fill="#1D252C" mask="url(#path-3-outside-1_2829_33098)"/>
<path d="M56.9478 72.2321L56.9482 72.2319C57.7368 71.7406 58.2783 71.001 58.6825 70.1763C59.0853 69.3546 59.3676 68.4148 59.6184 67.49C59.6826 67.2531 59.7447 67.0178 59.8061 66.7849C59.9887 66.0924 60.1659 65.4207 60.3793 64.7881C60.6636 63.9458 60.9949 63.2299 61.4408 62.6973C61.8927 62.1587 62.543 61.7043 63.3233 61.2769C63.9187 60.9508 64.5602 60.6555 65.2205 60.3515C65.4285 60.2558 65.6383 60.1592 65.8492 60.0605C66.7145 59.6555 67.5887 59.2185 68.3258 58.6848C69.0654 58.1494 69.6982 57.4945 70.0448 56.6398C70.3899 55.7926 70.3909 54.8864 70.2338 53.9901C70.0772 53.0968 69.7561 52.1743 69.4194 51.2786C69.3405 51.0687 69.2609 50.8607 69.1819 50.6543C68.9182 49.9649 68.6613 49.2936 68.4602 48.6318C68.1997 47.7747 68.0502 46.9853 68.1013 46.2717L68.1014 46.2712C68.1497 45.5894 68.408 44.8539 68.7893 44.0569C69.071 43.4683 69.4041 42.8765 69.7483 42.2648C69.8719 42.0452 69.997 41.8229 70.1217 41.5974C70.585 40.7589 71.0359 39.8851 71.3176 39.0079C71.6004 38.1273 71.7238 37.2104 71.498 36.2957C71.2723 35.381 70.7366 34.6268 70.0765 33.9789C69.419 33.3335 68.6134 32.7697 67.8132 32.2431C67.5979 32.1015 67.3838 31.9629 67.1721 31.826C66.5828 31.4447 66.0127 31.0758 65.4895 30.6858C64.7811 30.1578 64.2103 29.6269 63.8503 29.0458L63.8501 29.0455C63.4728 28.4375 63.2379 27.6692 63.0697 26.7893C62.9399 26.11 62.8549 25.3962 62.7676 24.6633C62.7415 24.4438 62.7152 24.2227 62.6874 24.0002C62.5687 23.0507 62.4238 22.0847 62.1468 21.2211C61.8688 20.3546 61.4463 19.5529 60.7468 18.9636C60.0425 18.3694 59.1778 18.0849 58.2741 17.9553C57.3736 17.8261 56.3965 17.8458 55.4421 17.8896C55.2105 17.9002 54.9807 17.9121 54.753 17.924C54.026 17.9619 53.3197 17.9987 52.64 17.9867C51.7505 17.971 50.9635 17.8711 50.3128 17.6047C49.6701 17.3407 49.0433 16.8611 48.3992 16.2477C47.9151 15.7865 47.4448 15.2737 46.9601 14.7451C46.7979 14.5682 46.634 14.3895 46.4675 14.2104C45.8148 13.5085 45.1276 12.808 44.3892 12.2681C43.6481 11.7261 42.8254 11.3232 41.9 11.2548L41.8993 11.2547C40.9977 11.1893 40.1454 11.47 39.3507 11.8966C38.5585 12.3217 37.7868 12.9121 37.0431 13.5086C36.8814 13.6383 36.7212 13.7682 36.562 13.8972C35.9769 14.3713 35.4057 14.8342 34.8246 15.2385C34.0877 15.7512 33.3764 16.1391 32.6706 16.3133C31.9647 16.4875 31.1546 16.4751 30.2638 16.364C29.5614 16.2765 28.8404 16.1325 28.1019 15.985C27.901 15.9449 27.6987 15.9045 27.4952 15.8649C26.5594 15.6829 25.6016 15.5193 24.7026 15.5115C23.8007 15.5037 22.9157 15.6517 22.148 16.1291L22.1476 16.1294C21.359 16.6207 20.8175 17.3602 20.4133 18.1849C20.0105 19.0066 19.7283 19.9465 19.4774 20.8713C19.4132 21.1082 19.3511 21.3435 19.2897 21.5764C19.1071 22.2688 18.93 22.9406 18.7165 23.5732C18.4322 24.4156 18.1008 25.1316 17.6548 25.6642C17.2029 26.2027 16.5527 26.657 15.7725 27.0844C15.1771 27.4104 14.5357 27.7058 13.8754 28.0097C13.6674 28.1055 13.4575 28.2021 13.2466 28.3008C12.3813 28.7058 11.5071 29.1428 10.77 29.6765C10.0303 30.212 9.39735 30.867 9.05084 31.7219C8.70595 32.569 8.70495 33.475 8.86203 34.3712C9.01862 35.2645 9.33976 36.187 9.67645 37.0827C9.75534 37.2925 9.83492 37.5005 9.91389 37.7069C10.1776 38.3964 10.4345 39.0677 10.6356 39.7295C10.8961 40.5866 11.0456 41.376 10.9945 42.0896L10.9944 42.09C10.9462 42.7718 10.6879 43.5074 10.3065 44.3043C10.0248 44.893 9.69173 45.4848 9.34749 46.0965C9.22386 46.3161 9.09879 46.5384 8.97415 46.7639C8.51082 47.6024 8.05991 48.4762 7.77822 49.3533C7.49538 50.234 7.37205 51.1508 7.5978 52.0656C7.82354 52.9803 8.35925 53.7345 9.01933 54.3824C9.67677 55.0278 10.4825 55.5915 11.2827 56.1181C11.4979 56.2598 11.712 56.3983 11.9237 56.5353C12.513 56.9166 13.0831 57.2855 13.6063 57.6755C14.3147 58.2035 14.8855 58.7344 15.2455 59.3155L15.2457 59.3158C15.623 59.9237 15.8579 60.692 16.0261 61.5719C16.1559 62.2513 16.2409 62.9651 16.3282 63.698C16.3543 63.9175 16.3806 64.1386 16.4085 64.3611C16.5271 65.3105 16.672 66.2766 16.949 67.1402C17.227 68.0067 17.6495 68.8083 18.3491 69.3977C19.0533 69.9919 19.9181 70.2764 20.8217 70.406C21.7222 70.5352 22.6993 70.5154 23.6537 70.4717C23.8854 70.4611 24.1151 70.4491 24.3428 70.4373C25.0698 70.3994 25.7761 70.3626 26.4558 70.3746C27.3455 70.3902 28.1327 70.4903 28.7834 70.7568C29.426 71.0208 30.0527 71.5003 30.6966 72.1136C31.1807 72.5747 31.651 73.0876 32.1357 73.6162C32.298 73.7931 32.4618 73.9718 32.6284 74.1509C33.281 74.8528 33.9682 75.5532 34.7066 76.0932C35.4477 76.6351 36.2704 77.0381 37.1958 77.1065L37.1962 77.1065C38.0968 77.1724 38.9486 76.8917 39.743 76.4652C40.5349 76.0402 41.3067 75.4497 42.0507 74.8532C42.2121 74.7237 42.3721 74.5942 42.531 74.4654C43.1168 73.9909 43.6887 73.5276 44.2704 73.123C45.0077 72.6102 45.7194 72.2222 46.4252 72.048C47.1311 71.8738 47.9412 71.8862 48.832 71.9972C49.5345 72.0848 50.2555 72.2288 50.994 72.3763C51.1949 72.4164 51.3971 72.4568 51.6006 72.4963C52.5364 72.6783 53.4942 72.842 54.3932 72.8497C55.2952 72.8575 56.1802 72.7095 56.9478 72.2321Z" fill="url(#paint1_linear_2829_33098)" stroke="#1D252C"/>
<path d="M39.3872 56.7106L39.6573 56.8716L39.8218 56.6035L50.9854 38.4082L50.9856 38.4079C52.1533 36.5006 51.5454 34.0372 49.6244 32.8921C47.7059 31.7485 45.2197 32.362 44.0535 34.2669L36.9557 45.8611L32.4434 43.1713C30.5249 42.0277 28.0388 42.6413 26.8726 44.5462C25.7049 46.4535 26.3128 48.9169 28.2338 50.062L39.3872 56.7106Z" fill="white" stroke="#1D252C" stroke-width="0.637053"/>
<defs>
<linearGradient id="paint0_linear_2829_33098" x1="87.5307" y1="44.7622" x2="72.3294" y2="104.553" gradientUnits="userSpaceOnUse">
<stop stop-color="#DE5D83"/>
<stop offset="1" stop-color="#FFA9C2"/>
</linearGradient>
<linearGradient id="paint1_linear_2829_33098" x1="32.0994" y1="13.999" x2="46.9964" y2="74.3622" gradientUnits="userSpaceOnUse">
<stop stop-color="#99E4D7"/>
<stop offset="1" stop-color="#00C9A7"/>
</linearGradient>
</defs>
</svg>
