<svg width="120" height="120" viewBox="0 0 120 120" fill="none" xmlns="http://www.w3.org/2000/svg">
<g clip-path="url(#clip0_2829_33194)">
<rect width="120" height="120" fill="white"/>
<rect width="120" height="120" rx="32" fill="#F3F3F3"/>
<path d="M31.6964 65.0647C28.5256 63.2108 27.4677 59.178 29.3217 56.0072L47.4513 24.9028C49.3052 21.732 53.338 20.6742 56.5088 22.5281C59.6796 24.382 60.7375 28.4147 58.8836 31.5856L40.7539 62.69C38.9 65.8608 34.8673 66.9186 31.6964 65.0647Z" fill="#1D252C" stroke="#1D252C" stroke-miterlimit="10"/>
<path d="M38.1784 53.4631L60.9865 29.8058L61.506 35.5642L38.1784 53.4631Z" fill="#1D252C" stroke="#1D252C" stroke-linecap="round" stroke-linejoin="round"/>
<path d="M71.7895 26.8818L43.0118 54.8338" stroke="#1D252C" stroke-miterlimit="10"/>
<path d="M30.1645 54.6601L71.4025 18.1869C74.0284 15.6583 78.2374 15.6935 80.766 18.3194C83.2946 20.9452 83.2594 25.1542 80.6335 27.6828L47.6271 59.5816" fill="#1D252C"/>
<path d="M30.1645 54.6601L71.4025 18.1869C74.0284 15.6583 78.2374 15.6935 80.766 18.3194C83.2946 20.9452 83.2594 25.1542 80.6336 27.6828L47.6271 59.5816" stroke="#1D252C" stroke-miterlimit="10" stroke-linecap="round"/>
<path d="M51.3989 45.3991L71.3994 37.6535L72.3542 41.6941L51.3989 45.3991Z" fill="#1D252C" stroke="#1D252C" stroke-linecap="round" stroke-linejoin="round"/>
<path d="M80.844 40.4477L44.9497 57.0494" stroke="#1D252C" stroke-miterlimit="10" stroke-linecap="round" stroke-linejoin="round"/>
<path d="M48.0693 61.4684L96.1431 40.6686C99.4547 39.1434 100.887 35.2153 99.3727 31.8566C97.8474 28.5449 93.9193 27.1124 90.5606 28.627L51.1485 45.453" fill="#1D252C"/>
<path d="M48.0693 61.4684L96.1431 40.6686C99.4547 39.1434 100.887 35.2153 99.3727 31.8566C97.8474 28.5449 93.9193 27.1124 90.5606 28.627L51.1485 45.453" stroke="#1D252C" stroke-miterlimit="10" stroke-linecap="round" stroke-linejoin="round"/>
<path d="M58.1527 56.4013C58.1527 56.4013 68.1811 52.1281 75.6913 55.658C77.566 56.5391 74.8896 59.7125 74.8896 59.7125L58.1527 56.4013Z" fill="#1D252C" stroke="#1D252C" stroke-linecap="round" stroke-linejoin="round"/>
<path d="M58.1038 52.5165C62.8021 51.3933 67.804 51.4903 72.6975 53.1275C82.7589 56.4938 89.825 65.4687 90.6977 76.0838C90.9685 79.3782 88.7995 82.5173 85.5504 83.2609C81.5386 84.1562 77.8207 81.285 77.5201 77.3197C77.1143 71.9969 73.5508 67.4484 68.4744 65.75C61.5229 63.4242 54.2462 65.5664 50.7741 74.8804C50.7741 74.8804 46.5057 87.03 59.4315 92.7784C64.2792 94.4004 69.6641 93.0491 73.2214 89.4083C75.7711 86.8033 79.965 86.7317 82.5852 89.2357C85.1901 91.7854 85.2617 95.9792 82.7121 98.5842C56.8711 125.259 9.51322 90.8693 29.4049 55.8639" fill="#1D252C"/>
<path d="M58.1038 52.5165C62.8021 51.3933 67.804 51.4903 72.6975 53.1275C82.7589 56.4938 89.825 65.4687 90.6977 76.0838C90.9685 79.3782 88.7995 82.5173 85.5504 83.2609C81.5386 84.1562 77.8207 81.285 77.5201 77.3197C77.1143 71.9969 73.5508 67.4484 68.4744 65.75C61.5229 63.4242 54.2462 65.5664 50.7741 74.8804C50.7741 74.8804 46.5057 87.03 59.4315 92.7784C64.2792 94.4004 69.6641 93.0491 73.2214 89.4083C75.7711 86.8033 79.965 86.7317 82.5852 89.2357C85.1901 91.7854 85.2617 95.9792 82.7121 98.5842C56.8711 125.259 9.51322 90.8693 29.4049 55.8639" stroke="#1D252C" stroke-miterlimit="10" stroke-linecap="round" stroke-linejoin="round"/>
<path d="M29.1148 62.2287C25.9439 60.3747 24.8861 56.342 26.74 53.1711L44.8696 22.0668C46.7236 18.8959 50.7563 17.8381 53.9271 19.692C57.098 21.5459 58.1558 25.5787 56.3019 28.7495L38.1723 59.8539C36.3183 63.0247 32.2856 64.0826 29.1148 62.2287Z" fill="#D698FF" stroke="#1D252C" stroke-miterlimit="10"/>
<path d="M35.5964 50.6269L58.4045 26.9697L58.924 32.728L35.5964 50.6269Z" fill="#1D252C" stroke="#1D252C" stroke-linecap="round" stroke-linejoin="round"/>
<path d="M69.2076 24.0454L40.4299 51.9975" stroke="#1D252C" stroke-miterlimit="10"/>
<path d="M27.5825 51.824L68.8206 15.3509C71.4464 12.8223 75.6554 12.8575 78.184 15.4833C80.7126 18.1091 80.6774 22.3181 78.0516 24.8467L45.0452 56.7455" fill="#D698FF"/>
<path d="M27.5825 51.824L68.8206 15.3509C71.4464 12.8223 75.6554 12.8574 78.184 15.4833C80.7126 18.1091 80.6774 22.3181 78.0516 24.8467L45.0452 56.7455" stroke="#1D252C" stroke-miterlimit="10" stroke-linecap="round"/>
<path d="M48.8169 42.563L68.8174 34.8173L69.7721 38.8579L48.8169 42.563Z" fill="#1D252C" stroke="#1D252C" stroke-linecap="round" stroke-linejoin="round"/>
<path d="M78.262 37.6118L42.3678 54.2135" stroke="#1D252C" stroke-miterlimit="10" stroke-linecap="round" stroke-linejoin="round"/>
<path d="M45.4873 58.6324L93.5611 37.8325C96.8728 36.3073 98.3053 32.3792 96.7907 29.0205C95.2655 25.7088 91.3374 24.2763 87.9787 25.7909L48.5666 42.6169" fill="#D698FF"/>
<path d="M45.4873 58.6324L93.5611 37.8326C96.8728 36.3073 98.3053 32.3792 96.7907 29.0205C95.2655 25.7088 91.3374 24.2763 87.9787 25.7909L48.5666 42.6169" stroke="#1D252C" stroke-miterlimit="10" stroke-linecap="round" stroke-linejoin="round"/>
<path d="M55.5704 53.5651C55.5704 53.5651 65.5988 49.2919 73.109 52.8218C74.9836 53.703 72.3073 56.8764 72.3073 56.8764L55.5704 53.5651Z" fill="#1D252C" stroke="#1D252C" stroke-linecap="round" stroke-linejoin="round"/>
<path d="M55.5219 49.6804C60.2202 48.5571 65.2221 48.6541 70.1156 50.2913C80.177 53.6576 87.2431 62.6326 88.1158 73.2476C88.3866 76.542 86.2176 79.6811 82.9685 80.4247C78.9567 81.32 75.2388 78.4489 74.9382 74.4835C74.5324 69.1607 70.9689 64.6122 65.8925 62.9138C58.941 60.588 51.6643 62.7302 48.1922 72.0442C48.1922 72.0442 43.9238 84.1938 56.8496 89.9423C61.6973 91.5642 67.0821 90.2129 70.6395 86.5721C73.1892 83.9671 77.383 83.8956 80.0033 86.3995C82.6082 88.9492 82.6798 93.1431 80.1301 95.748C54.2892 122.422 6.93131 88.0331 26.823 53.0277" fill="url(#paint0_linear_2829_33194)"/>
<path d="M55.5219 49.6804C60.2202 48.5571 65.2221 48.6541 70.1156 50.2913C80.177 53.6576 87.2431 62.6326 88.1158 73.2476C88.3866 76.542 86.2176 79.6811 82.9685 80.4247C78.9567 81.32 75.2388 78.4489 74.9382 74.4835C74.5324 69.1607 70.9689 64.6122 65.8925 62.9138C58.941 60.588 51.6643 62.7302 48.1922 72.0442C48.1922 72.0442 43.9238 84.1938 56.8496 89.9423C61.6973 91.5642 67.0821 90.2129 70.6395 86.5721C73.1892 83.9671 77.383 83.8956 80.0033 86.3995C82.6082 88.9492 82.6798 93.1431 80.1301 95.748C54.2892 122.422 6.93131 88.0331 26.823 53.0277" stroke="#1D252C" stroke-miterlimit="10" stroke-linecap="round" stroke-linejoin="round"/>
<path d="M56.3993 90.6005C64.2545 93.2286 72.753 88.9912 75.3811 81.136C78.0092 73.2808 73.7718 64.7824 65.9166 62.1543C58.0614 59.5261 49.563 63.7635 46.9348 71.6187C44.3067 79.4739 48.5441 87.9724 56.3993 90.6005Z" fill="#FFBA2A" stroke="#1D252C"/>
<path d="M57.1492 88.3595C63.7668 90.5735 70.9262 87.0037 73.1403 80.3862C75.3543 73.7686 71.7846 66.6092 65.167 64.3951C58.5494 62.1811 51.39 65.7508 49.1759 72.3684C46.9619 78.986 50.5317 86.1454 57.1492 88.3595Z" fill="#FFBA2A" stroke="#BD7A11"/>
<path d="M69.3735 66.7775C64.0717 62.2404 56.0957 62.8604 51.5587 68.1622C47.0216 73.464 47.6415 81.44 52.9434 85.9771C58.2452 90.5141 66.2212 89.8942 70.7582 84.5923C75.2953 79.2905 74.6753 71.3145 69.3735 66.7775Z" fill="#FFBA2A" stroke="#BD7A11"/>
<path d="M58.0224 84.9901L58.2968 85.0819C58.6626 85.2043 59.0746 85.037 59.2123 84.6254L59.6864 83.3602C59.7324 83.223 59.9155 83.1317 60.068 83.1319C61.4401 83.4384 62.6146 83.272 63.5911 82.785C64.5677 82.2981 65.2549 81.4601 65.6525 80.4236C66.1114 79.2041 66.0362 78.2127 65.534 77.2819C65.0622 76.4121 64.1328 75.6943 63.0355 75.0221C62.9136 74.9305 62.8681 74.7627 62.914 74.6255L63.6941 72.4456C63.7247 72.3541 63.8011 72.2779 63.8621 72.2475C63.9231 72.2171 64.0146 72.2477 64.045 72.3087C64.3954 72.6293 64.5017 73.0717 64.4859 73.5749C64.4703 73.9257 64.6224 74.2309 64.9883 74.3533L66.5737 74.9345C66.9853 75.0722 67.4125 74.8592 67.5045 74.4323C67.6886 73.426 67.5371 72.5108 67.0958 71.7021C66.6544 70.8933 65.9536 70.252 65.0087 69.7325C64.841 69.6255 64.7955 69.4577 64.8414 69.3205L65.0709 68.6345C65.1933 68.2687 65.026 67.8567 64.6144 67.719L64.34 67.6272C63.9741 67.5048 63.5622 67.6721 63.4245 68.0837L63.2103 68.724C63.1644 68.8612 62.9813 68.9525 62.8288 68.9523C60.3588 68.431 58.2685 69.359 57.5342 71.4017C57.106 72.5297 57.1201 73.5515 57.5308 74.4517C57.9416 75.3519 58.81 76.1002 59.9987 76.803C60.1206 76.8946 60.1662 77.0624 60.1203 77.1996L59.2483 79.6539C59.1871 79.8369 58.9736 79.8671 58.8517 79.7755C58.5317 79.5159 58.3643 79.2564 58.2578 78.9666C58.1514 78.6767 58.167 78.326 58.2284 77.9905C58.2898 77.6551 58.1072 77.2889 57.7413 77.1665L56.0645 76.5546C55.6529 76.4169 55.2256 76.6299 55.1337 77.0568C54.9342 78.1089 55.0094 79.1002 55.4659 80.0157C55.9224 80.9312 56.7298 81.7099 57.9795 82.3823C58.1472 82.4892 58.1927 82.657 58.1468 82.7942L57.6726 84.0595C57.4435 84.4405 57.6108 84.8524 58.0224 84.9901ZM60.4918 72.2895C60.6601 71.7864 61.1332 71.4362 61.8804 71.4828C62.0329 71.4829 62.1395 71.6203 62.063 71.849L61.39 73.7088C61.3288 73.8917 61.0999 73.9677 60.978 73.876C60.6123 73.6011 60.4906 73.357 60.4146 73.1282C60.3386 72.8993 60.3694 72.6554 60.4918 72.2895ZM62.4966 79.6728C62.2977 80.2673 61.7178 80.6327 61.001 80.6471C60.8942 80.6623 60.8638 80.6012 60.8334 80.5402C60.8029 80.4792 60.7878 80.3724 60.8184 80.2809L61.568 78.1925C61.6292 78.0096 61.858 77.9336 61.9799 78.0252C62.3456 78.3001 62.5131 78.5596 62.5891 78.7884C62.6498 79.063 62.6647 79.3222 62.4966 79.6728Z" fill="#F8991D" stroke="#BD7A11"/>
<g opacity="0.25">
<path opacity="0.25" fill-rule="evenodd" clip-rule="evenodd" d="M52.1356 85.4106C52.4707 85.7769 53.0355 85.3048 52.8377 84.8318C50.7995 80.1325 51.7207 74.491 55.5528 70.637C59.3849 66.7829 65.0589 65.9352 69.7536 68.0145C70.1957 68.2132 70.669 67.7105 70.3339 67.3441C65.3527 62.3213 57.2701 62.3123 52.2473 67.2935C47.1634 72.3051 47.1544 80.3877 52.1356 85.4106Z" fill="#F8991D"/>
</g>
<path opacity="0.35" fill-rule="evenodd" clip-rule="evenodd" d="M52.7214 83.1213C53.3235 83.827 54.3273 83.0991 54.2219 82.1838C54.0116 80.7978 54.1046 79.354 54.5428 77.9518C56.2173 72.2123 62.4969 68.9538 68.5869 70.7378C68.7282 70.7953 68.9374 70.8474 69.0787 70.9048C69.9211 71.1814 70.7783 70.3281 70.2128 69.6538C68.7782 67.9183 66.7947 66.6017 64.4141 65.8975C58.3241 64.1134 52.0445 67.372 50.37 73.1115C49.379 76.643 50.355 80.3979 52.7214 83.1213Z" fill="white"/>
</g>
<defs>
<linearGradient id="paint0_linear_2829_33194" x1="53" y1="56.4999" x2="44.2417" y2="102.383" gradientUnits="userSpaceOnUse">
<stop stop-color="#D698FF"/>
<stop offset="1" stop-color="#A95EDB"/>
</linearGradient>
<clipPath id="clip0_2829_33194">
<rect width="120" height="120" fill="white"/>
</clipPath>
</defs>
</svg>
