<svg width="29" height="24" viewBox="0 1 29 24" fill="none" xmlns="http://www.w3.org/2000/svg"><path d="M27.44 24.837h-1.146c-4.356 0-7.553-2.971-7.553-7.585V2.394c0-.807.637-1.401 1.443-1.401h1.273c.834 0 1.443.608 1.443 1.4v14.449c0 2.18 1.598 3.877 3.748 3.877h.834c.835 0 1.471.58 1.471 1.274v1.57c-.014.694-.678 1.274-1.513 1.274zM13.621 11.167H8.416c-.764 0-1.273.58-1.273 1.274v1.217c0 .708.51 1.274 1.273 1.274h3.451v2.787c0 1.953-1.443 3.354-3.451 3.354H7.61c-2.179 0-3.48-1.542-3.48-3.481V8.38c0-1.953 1.316-3.453 3.48-3.453h.806c1.57 0 2.56.863 3.225 1.924.509.892 1.5 1.217 2.46.708l.411-.226c.835-.453 1.117-1.246.806-2.052C14.074 2.465 11.386.993 8.444.993h-.933C3.296.993 0 3.88 0 8.167v9.665c0 4.288 3.296 7.175 7.51 7.175h.892c4.385 0 7.482-2.887 7.482-7.175v-4.556c.014-1.146-1.075-2.109-2.263-2.109z" fill="#3BBFAD"/></svg>