<svg width="155" height="24" viewBox="0 0 155 24" fill="none" xmlns="http://www.w3.org/2000/svg">
<g clip-path="url(#clip0)">
<path d="M152.865 0.141602H140.857C140.032 0.141602 139.431 0.778394 139.431 1.585V2.70292C139.431 3.50953 140.032 4.10387 140.857 4.10387H144.841V22.4435C144.841 23.2501 145.498 23.8444 146.267 23.8444H147.525C148.28 23.8444 148.951 23.2359 148.951 22.4435V4.10387H152.865C153.718 4.10387 154.291 3.49538 154.291 2.70292V1.585C154.291 0.778394 153.718 0.141602 152.865 0.141602Z" fill="#3BBFAD"/>
<path d="M136.047 0.141602H134.789C134.02 0.141602 133.363 0.778394 133.363 1.585V10.1746H126.471V1.585C126.471 0.778394 125.814 0.141602 125.045 0.141602H123.787C123.032 0.141602 122.361 0.778394 122.361 1.585V22.4576C122.361 23.2642 123.018 23.8586 123.787 23.8586H125.045C125.8 23.8586 126.471 23.2501 126.471 22.4576V14.0803H133.363V22.4435C133.363 23.2501 134.02 23.8444 134.789 23.8444H136.047C136.802 23.8444 137.473 23.2359 137.473 22.4435V1.585C137.473 0.778394 136.802 0.141602 136.047 0.141602Z" fill="#3BBFAD"/>
<path d="M117.301 10.1745H112.143C111.388 10.1745 110.884 10.7547 110.884 11.4481V12.6651C110.884 13.3726 111.388 13.9387 112.143 13.9387H115.554V16.7264C115.554 18.6792 114.128 20.0802 112.143 20.0802H111.346C109.193 20.0802 107.907 18.5377 107.907 16.5991V7.38679C107.907 5.43396 109.207 3.93396 111.346 3.93396H112.143C113.694 3.93396 114.673 4.79717 115.33 5.85849C115.833 6.75 116.812 7.07547 117.762 6.56604L118.168 6.33962C118.993 5.88679 119.272 5.09434 118.965 4.28774C117.748 1.4717 115.092 0 112.185 0H111.262C107.096 0 103.839 2.88679 103.839 7.17453V16.8396C103.839 21.1274 107.096 24.0141 111.262 24.0141H112.143C116.476 24.0141 119.538 21.1274 119.538 16.8396V12.283C119.552 11.1368 118.475 10.1745 117.301 10.1745Z" fill="#3BBFAD"/>
<path d="M99.5051 0.141602H98.1771C97.3523 0.141602 96.6533 0.72179 96.6533 1.585V3.43877C96.6533 4.30198 97.3523 4.83971 98.1771 4.83971H99.5051C100.33 4.83971 101.029 4.30198 101.029 3.43877V1.585C101.029 0.72179 100.33 0.141602 99.5051 0.141602Z" fill="#3BBFAD"/>
<path d="M99.477 7.10376H98.2189C97.464 7.10376 96.793 7.74055 96.793 8.54716V22.4575C96.793 23.2641 97.45 23.8585 98.2189 23.8585H99.477C100.232 23.8585 100.903 23.25 100.903 22.4575V8.54716C100.903 7.74055 100.232 7.10376 99.477 7.10376Z" fill="#3BBFAD"/>
<path d="M93.2427 19.868H92.4179C90.2931 19.868 88.7134 18.1699 88.7134 15.9907V1.54254C88.7134 0.735941 88.1123 0.141602 87.2875 0.141602H86.0294C85.2326 0.141602 84.6035 0.750092 84.6035 1.54254V16.401C84.6035 21.0142 87.7628 23.9859 92.0685 23.9859H93.2008C94.0256 23.9859 94.6826 23.4058 94.6826 22.7124V21.1416C94.6966 20.4482 94.0675 19.868 93.2427 19.868Z" fill="#3BBFAD"/>
<path d="M74.4403 0H73.6435C69.3798 0 66.542 3.09906 66.542 7.07547V22.4575C66.542 23.2641 67.1711 23.8585 67.9679 23.8585H69.268C70.0648 23.8585 70.6519 23.25 70.6519 22.4575V7.38679C70.6519 5.50472 71.98 4.06132 73.8392 4.06132H74.2446C76.1039 4.06132 77.404 5.50472 77.404 7.38679V22.4434C77.404 23.25 78.033 23.8443 78.8299 23.8443H80.088C80.8848 23.8443 81.5139 23.2358 81.5139 22.4434V7.07547C81.5279 3.09906 78.6481 0 74.4403 0Z" fill="#3BBFAD"/>
<path d="M56.4209 0H55.5402C51.3744 0 48.1172 2.88679 48.1172 7.17453V16.8396C48.1172 21.1274 51.3744 24.0141 55.5402 24.0141H56.4629C59.3706 24.0141 62.0267 22.5425 63.2568 19.7264C63.5784 18.9198 63.2848 18.1274 62.46 17.6745L62.0546 17.4481C61.104 16.9387 60.1255 17.25 59.6222 18.1557C58.9652 19.217 57.9726 20.0802 56.4349 20.0802H55.6381C53.4853 20.0802 52.1992 18.5802 52.1992 16.6274V13.9528H61.5933C62.7676 13.9528 63.844 12.9906 63.844 11.8443V7.17453C63.816 2.88679 60.7545 0 56.4209 0ZM59.8319 10.1745H52.1852V7.38679C52.1852 5.43396 53.4853 3.90566 55.6241 3.90566H56.4209C58.406 3.90566 59.8319 5.3066 59.8319 7.25943V10.1745Z" fill="#3BBFAD"/>
<path d="M37.9258 0H37.0451C32.8793 0 29.6221 2.88679 29.6221 7.17453V16.8396C29.6221 21.1274 32.8793 24.0141 37.0451 24.0141H37.9678C40.8755 24.0141 43.5315 22.5425 44.7617 19.7264C45.0832 18.9198 44.7897 18.1274 43.9649 17.6745L43.5595 17.4481C42.6089 16.9387 41.6303 17.25 41.1271 18.1557C40.4701 19.217 39.4775 20.0802 37.9398 20.0802H37.143C34.9901 20.0802 33.704 18.5802 33.704 16.6274V13.9528H43.0982C44.2724 13.9528 45.3489 12.9906 45.3489 11.8443V7.17453C45.3349 2.88679 42.2594 0 37.9258 0ZM41.3508 10.1745H33.6901V7.38679C33.6901 5.43396 34.9901 3.90566 37.129 3.90566H37.9258C39.9109 3.90566 41.3368 5.3066 41.3368 7.25943V10.1745H41.3508Z" fill="#3BBFAD"/>
<path d="M27.1198 0H25.9874C21.6818 0 18.5225 2.9717 18.5225 7.58491V22.4434C18.5225 23.25 19.1515 23.8443 19.9484 23.8443H21.2065C22.0313 23.8443 22.6324 23.2359 22.6324 22.4434V7.99528C22.6324 5.81604 24.2121 4.11792 26.3369 4.11792H27.1617C27.9865 4.11792 28.6156 3.53774 28.6156 2.84434V1.27358C28.6016 0.580189 27.9446 0 27.1198 0Z" fill="#3BBFAD"/>
<path d="M13.4621 10.1745H8.31772C7.56284 10.1745 7.05958 10.7547 7.05958 11.4481V12.6651C7.05958 13.3726 7.56284 13.9387 8.31772 13.9387H11.7287V16.7264C11.7287 18.6792 10.3028 20.0802 8.31772 20.0802H7.5209C5.36808 20.0802 4.08197 18.5377 4.08197 16.5991V7.38679C4.08197 5.43396 5.38206 3.93396 7.5209 3.93396H8.31772C9.86943 3.93396 10.848 4.79717 11.505 5.85849C12.0083 6.75 12.9868 7.07547 13.9374 6.56604L14.3428 6.33962C15.1676 5.88679 15.4472 5.09434 15.1397 4.28774C13.9095 1.4717 11.2534 0 8.34568 0H7.42304C3.25719 0 0 2.88679 0 7.17453V16.8396C0 21.1274 3.25719 24.0141 7.42304 24.0141H8.30374C12.6373 24.0141 15.6988 21.1274 15.6988 16.8396V12.283C15.7128 11.1368 14.6364 10.1745 13.4621 10.1745Z" fill="#3BBFAD"/>
</g>
<defs>
<clipPath id="clip0">
<rect width="154.971" height="24" fill="white"/>
</clipPath>
</defs>
</svg>
