<svg width="120" height="120" viewBox="0 0 120 120" fill="none" xmlns="http://www.w3.org/2000/svg">
<path d="M84 120H36C16.12 120 0 103.88 0 84V36C0 16.12 16.12 0 36 0H84C103.88 0 120 16.12 120 36V84C120 103.88 103.88 120 84 120Z" fill="#F3F3F3"/>
<path d="M100 39L73.33 65.78L46.67 51.5L20 74.73V87C20 93.63 25.37 99 32 99H88C94.63 99 100 93.63 100 87V39Z" fill="url(#paint0_linear_3056_25498)"/>
<path fill-rule="evenodd" clip-rule="evenodd" d="M73.5136 67.0128L46.8063 52.7074L21 75.1851V87C21 93.0777 25.9223 98 32 98H88C94.0777 98 99 93.0777 99 87V41.4213L73.5136 67.0128ZM100 39V87C100 93.63 94.63 99 88 99H32C25.37 99 20 93.63 20 87V74.73L46.67 51.5L73.33 65.78L100 39Z" fill="#1D252C"/>
<path d="M22.0101 55.4401C21.3101 55.4401 20.6201 55.1501 20.1201 54.5801C19.2101 53.5401 19.3201 51.9601 20.3601 51.0501L45.0201 29.5901C45.8001 28.9101 46.9301 28.7801 47.8401 29.2701L72.8701 42.6701L96.2101 19.2201C97.1801 18.2401 98.7701 18.2401 99.7501 19.2101C100.73 20.1801 100.73 21.7701 99.7601 22.7501L75.1 47.5201C74.32 48.3001 73.1201 48.4801 72.1501 47.9601L47.0001 34.5001L23.6501 54.8201C23.1801 55.2401 22.5901 55.4401 22.0101 55.4401Z" fill="#1D252C"/>
<path d="M97.9901 33.9C96.6101 33.9 95.4901 32.78 95.4901 31.4V23.5H87.5901C86.2101 23.5 85.0901 22.38 85.0901 21C85.0901 19.62 86.2101 18.5 87.5901 18.5H97.9901C99.3701 18.5 100.49 19.62 100.49 21V31.4C100.49 32.78 99.3701 33.9 97.9901 33.9Z" fill="#1D252C"/>
<defs>
<linearGradient id="paint0_linear_3056_25498" x1="60" y1="39" x2="60" y2="99" gradientUnits="userSpaceOnUse">
<stop stop-color="#5A6AFF"/>
<stop offset="1" stop-color="#9CA5FE"/>
</linearGradient>
</defs>
</svg>
