<svg width="110" height="110" viewBox="0 0 110 110" fill="none" xmlns="http://www.w3.org/2000/svg">
<rect width="110" height="110" fill="#E5E5E5"/>
<rect width="1440" height="10586" transform="translate(-207 -910)" fill="white"/>
<path d="M77 110H33C14.7767 110 0 95.2233 0 77V33C0 14.7767 14.7767 0 33 0H77C95.2233 0 110 14.7767 110 33V77C110 95.2233 95.2233 110 77 110Z" fill="#F3F3F3"/>
<path d="M29.3333 17.8335C22.9821 17.8335 17.8333 22.9822 17.8333 29.3335V80.6668C17.8333 87.0181 22.9821 92.1668 29.3333 92.1668H80.6667C87.0179 92.1668 92.1667 87.0181 92.1667 80.6668V29.3335C92.1667 22.9822 87.0179 17.8335 80.6667 17.8335H29.3333Z" fill="url(#paint0_linear_2829_23762)" stroke="#1D252C"/>
<path d="M33.8387 61.8059L28.1737 56.1409C27.2754 55.2426 27.2754 53.7943 28.1737 52.8959C29.0721 51.9976 30.5204 51.9976 31.4187 52.8959L33.8479 55.3251L39.9162 49.2568C40.8146 48.3584 42.2629 48.3584 43.1612 49.2568C44.0596 50.1551 44.0596 51.6034 43.1612 52.5018L33.8387 61.8059Z" fill="#1D252C"/>
<path d="M80.2764 57.2913H55.3902C54.1628 57.2913 53.1667 56.2647 53.1667 54.9997C53.1667 53.7347 54.1628 52.708 55.3902 52.708H80.2764C81.5038 52.708 82.5 53.7347 82.5 54.9997C82.5 56.2647 81.5038 57.2913 80.2764 57.2913Z" fill="#1D252C"/>
<path d="M33.8387 77.6692L28.1737 72.0042C27.2754 71.1059 27.2754 69.6575 28.1737 68.7592C29.0721 67.8609 30.5204 67.8609 31.4187 68.7592L33.8479 71.1884L39.9162 65.12C40.8146 64.2217 42.2629 64.2217 43.1612 65.12C44.0596 66.0184 44.0596 67.4667 43.1612 68.365L33.8387 77.6692Z" fill="#1D252C"/>
<path d="M80.2764 73.3333H55.3902C54.1628 73.3333 53.1667 72.3067 53.1667 71.0417C53.1667 69.7767 54.1628 68.75 55.3902 68.75H80.2764C81.5038 68.75 82.5 69.7767 82.5 71.0417C82.5 72.3067 81.5038 73.3333 80.2764 73.3333Z" fill="#1D252C"/>
<path d="M33.8387 45.5857L28.1737 39.9207C27.2754 39.0224 27.2754 37.574 28.1737 36.6757C29.0721 35.7774 30.5204 35.7774 31.4187 36.6757L33.8479 39.1049L39.9162 33.0365C40.8146 32.1382 42.2629 32.1382 43.1612 33.0365C44.0596 33.9349 44.0596 35.3832 43.1612 36.2815L33.8387 45.5857Z" fill="#1D252C"/>
<path d="M80.2764 41.2498H55.3902C54.1628 41.2498 53.1667 40.2232 53.1667 38.9582C53.1667 37.6932 54.1628 36.6665 55.3902 36.6665H80.2764C81.5038 36.6665 82.5 37.6932 82.5 38.9582C82.5 40.2232 81.5038 41.2498 80.2764 41.2498Z" fill="#1D252C"/>
<defs>
<linearGradient id="paint0_linear_2829_23762" x1="55" y1="18.3335" x2="55" y2="91.6668" gradientUnits="userSpaceOnUse">
<stop stop-color="#00C9A7"/>
<stop offset="1" stop-color="#99EDC5"/>
</linearGradient>
</defs>
</svg>
