<svg width="212" height="29" viewBox="0 0 212 29" fill="none" xmlns="http://www.w3.org/2000/svg">
<path d="M7.08932 15.9513V8.21127L4.54932 9.21127C4.13456 10.2311 3.96336 11.3337 4.04932 12.4313C4.18584 13.9144 4.75235 15.3255 5.67933 16.4913L7.08932 15.9513ZM13.9193 0.0312692C14.7203 0.127704 15.4804 0.438651 16.1193 0.931271C16.4626 1.2822 16.7066 1.71807 16.826 2.19425C16.9455 2.67044 16.9363 3.16982 16.7993 3.64127C16.713 4.04266 16.5428 4.42124 16.2998 4.75216C16.0568 5.08307 15.7465 5.35881 15.3893 5.56127C14.924 5.9099 14.3824 6.14297 13.8093 6.24127V9.96127L15.5593 11.3213L13.8093 12.9013V17.9813C14.8998 16.9989 15.7837 15.809 16.4093 14.4813C16.4093 14.4813 16.4593 14.3713 16.5693 14.0813C16.6898 15.2882 16.457 16.5041 15.8993 17.5813C15.3164 18.8753 14.326 19.943 13.0793 20.6213C11.3893 21.6547 9.37139 22.0118 7.42933 21.6213C6.35771 21.4387 5.33648 21.0327 4.432 20.4297C3.52751 19.8268 2.76001 19.0402 2.17933 18.1213C1.29654 16.7008 0.848154 15.0532 0.889319 13.3813C0.939319 9.94127 3.58932 7.00127 6.63932 5.87127C6.9616 5.7422 7.29687 5.64832 7.63932 5.59127C7.40932 5.76127 7.12933 5.93127 6.78933 6.16127C5.81294 6.88346 5.05225 7.85851 4.58932 8.98127L10.4593 6.44127V14.4413L5.77932 16.7513C6.72879 17.7983 7.99815 18.5015 9.38932 18.7513C10.7393 18.9383 12.1145 18.719 13.3393 18.1213V12.8413L11.5893 11.3213L13.3393 9.96127V6.24127C12.2881 6.06481 11.2493 5.82097 10.2293 5.51127C9.15932 5.28127 5.65933 4.32127 5.09933 4.21127C4.53694 4.09267 3.9505 4.19279 3.45933 4.49127C3.24142 4.68542 3.07927 4.93422 2.98961 5.21196C2.89996 5.48971 2.88605 5.78635 2.94932 6.07127C3.05937 6.33725 3.2348 6.57114 3.45933 6.75127C3.25521 6.72696 3.06159 6.64744 2.89931 6.52127C2.53257 6.3064 2.2264 6.0019 2.00951 5.63634C1.79263 5.27078 1.67214 4.85613 1.65932 4.43127C1.631 3.84882 1.74992 3.26862 2.0051 2.74428C2.26028 2.21994 2.64348 1.76837 3.11931 1.43127C4.01787 0.789218 5.12154 0.50084 6.21932 0.621269C7.96932 0.851269 10.2793 1.81127 12.3693 2.32127C13.0232 2.53073 13.7292 2.50955 14.3693 2.26127C14.4812 2.20239 14.5796 2.12085 14.6582 2.02185C14.7368 1.92284 14.7939 1.80854 14.8259 1.68623C14.8579 1.56392 14.8641 1.43629 14.844 1.31147C14.8239 1.18665 14.778 1.06738 14.7093 0.961269C14.2593 0.231269 13.4093 0.231271 12.7093 0.111271C13.1174 0.0293637 13.5332 -0.00752427 13.9493 0.00127044" fill="#035C67"/>
<path d="M36.8889 13.9112L34.2189 15.8312V9.51117L36.8889 13.9112ZM36.7789 7.82117L33.7789 9.57117L30.9589 11.0412V18.3712L29.8789 19.2212L30.0489 19.3912L31.1289 18.5412L34.4589 21.4212L40.2189 17.0212L40.1089 16.8512L36.8889 19.2812L34.2189 16.9612V16.0612L39.4689 12.3312L36.7789 7.82117Z" fill="#035C67"/>
<path d="M21.6511 24.3012C22.9161 24.5642 24.2331 24.3842 25.3811 23.7912C26.194 23.353 26.8615 22.6873 27.3019 21.8757C27.7424 21.064 27.9367 20.1416 27.8611 19.2212L27.9211 16.6212V10.7012L29.0511 9.8512L28.9311 9.6812L27.8111 10.5312L25.3811 7.7112L21.6511 10.4712V1.1012L17.8711 4.2112C18.0411 4.3212 18.8711 4.4312 18.8711 5.2112V18.3712L16.8711 19.6112L16.9911 19.7812L17.8311 19.1612L20.2211 21.3112L23.9511 18.4312L23.8411 18.2612L22.9311 18.9412L21.6911 18.0912V10.7512L23.1611 9.8512L25.1611 11.9412V18.2612C25.2308 19.9264 24.757 21.569 23.8111 22.9412C23.2752 23.6602 22.4845 24.1468 21.6011 24.3012" fill="#035C67"/>
<path d="M47.5007 23.6213C46.0307 23.4513 45.4107 22.6213 45.4107 21.8713C45.4474 21.5181 45.6013 21.1875 45.8478 20.9319C46.0942 20.6764 46.4191 20.5107 46.7707 20.4613C47.2646 20.4258 47.7596 20.5132 48.2115 20.7156C48.6635 20.918 49.0583 21.2292 49.3607 21.6213L52.8107 17.9513L52.6407 17.7812L51.7307 18.7812C50.8431 17.7701 49.6228 17.1103 48.2907 16.9212V5.73125L57.0407 21.4813C57.2261 21.5978 57.4418 21.657 57.6607 21.6512C58.0007 21.6512 57.8907 21.4213 57.8907 21.4213V5.56125C58.7375 5.51324 59.5376 5.15763 60.1407 4.56125C60.6681 4.10495 61.0352 3.49158 61.1882 2.81122C61.3412 2.13086 61.2719 1.41937 60.9907 0.78125C60.9519 1.22917 60.7504 1.64738 60.4243 1.9569C60.0982 2.26642 59.67 2.44583 59.2207 2.46125C58.7973 2.4565 58.3794 2.36535 57.9925 2.1934C57.6056 2.02145 57.2579 1.77231 56.9707 1.46125L53.4107 5.30125L53.5807 5.47125L54.5807 4.40125C55.2801 5.14847 56.2477 5.58731 57.2707 5.62125V14.8213L50.8907 3.14125C50.6028 2.60789 50.1795 2.15979 49.6634 1.84204C49.1473 1.52429 48.5566 1.34811 47.9507 1.33125C47.2288 1.35647 46.5373 1.62826 45.9915 2.10135C45.4456 2.57443 45.0783 3.22026 44.9507 3.93125C44.8189 4.48687 44.8189 5.06563 44.9507 5.62125C44.9507 5.62125 45.1807 4.09125 46.1407 4.09125C47.1007 4.09125 47.2707 4.55125 47.6607 5.09125V8.82125C46.7607 8.87125 44.6107 8.98125 44.4407 11.3613C44.4453 11.7683 44.5454 12.1686 44.733 12.5298C44.9206 12.8911 45.1904 13.2033 45.5207 13.4412C45.8552 13.6726 46.2452 13.8106 46.6507 13.8413C46.4384 13.7356 46.2705 13.5579 46.1771 13.3399C46.0837 13.1219 46.0708 12.8779 46.1407 12.6512C46.3607 11.9812 47.6607 11.8612 47.7207 12.1512V16.8913C46.95 16.8366 46.179 16.9942 45.4915 17.3467C44.8039 17.6993 44.2261 18.2335 43.8207 18.8913C43.5241 19.3983 43.3727 19.9773 43.3833 20.5647C43.3939 21.1521 43.566 21.7252 43.8807 22.2212C44.274 22.7908 44.8296 23.2289 45.4752 23.4786C46.1207 23.7283 46.8265 23.778 47.5007 23.6213Z" fill="#035C67"/>
<path d="M66.4601 13.9112L63.5301 15.8312V9.51117L66.4601 13.9112ZM66.3501 7.82117L63.3001 9.62117L60.6501 11.0912V18.4212L59.5801 19.2712L59.7501 19.4412L60.8201 18.5912L63.9201 21.4712L69.6801 17.0712L69.5701 16.9012L66.3501 19.3312L63.7601 16.9612V16.0512L69.0001 12.3312L66.3501 7.82117Z" fill="#035C67"/>
<path d="M74.4808 21.6212L71.6608 19.3612L70.4108 20.2112L70.3008 20.0412L71.5408 19.1412V12.7312C71.6008 10.1312 69.0608 10.7312 69.2308 7.99119C69.3243 7.45871 69.5487 6.95783 69.8838 6.53364C70.219 6.10945 70.6544 5.77527 71.1508 5.56119C71.5721 5.35485 72.032 5.23903 72.5008 5.22119C72.5008 5.22119 71.3208 5.90119 71.6008 6.92119C72.0508 8.50119 74.7608 8.61119 74.8208 10.7012V17.9212L76.5708 19.5012L77.0708 19.1112V11.2612L76.2808 10.1912L79.1108 7.76119L81.7008 9.96119L80.5208 10.9612V17.9212L83.1108 19.8412L83.5608 19.5612V11.2612L82.4908 10.2612L85.3108 7.77119L87.9708 9.86119L89.0408 8.96119L89.1508 9.13119L86.7808 11.1312V17.9212L80.7808 21.5312L77.6808 19.2212L74.4808 21.6212Z" fill="#035C67"/>
<path d="M198.579 13.9112L195.579 15.8312V9.51117L198.579 13.9112ZM198.529 7.82117L195.479 9.62117L192.709 11.0912V18.4212L191.529 19.2712L191.699 19.4412L192.769 18.5912L196.099 21.4712L201.859 17.0712L201.739 16.9012L198.529 19.3312L195.869 16.9612V16.0512L201.119 12.3312L198.529 7.82117Z" fill="#035C67"/>
<path d="M178.661 10.6212L179.281 10.1112L180.921 12.1112V18.1112L180.411 18.7812L182.781 21.3212L185.321 18.9012L184.321 17.9012V10.6212L185.061 10.0612L187.151 12.0612V18.0612L186.301 18.6312L188.951 21.3912L192.451 18.2912L192.281 18.1212L191.431 18.8512L189.971 17.5012V10.6212L191.381 9.62117L191.271 9.45117L189.971 10.4512L187.601 7.86117L184.221 10.4712L181.791 7.99117L178.521 10.4712L176.091 7.99117L172.591 10.9212L172.711 11.0912L173.841 10.1912L175.421 11.9412V18.0312L174.631 18.7112L177.171 21.4812L179.761 18.9912L178.691 17.9212L178.661 10.6212ZM173.751 18.6212L173.641 18.4512L172.641 19.3012L171.291 17.7812V10.8712L172.471 9.87117L172.301 9.70117L171.171 10.7012L168.751 7.93117L165.141 10.7512L165.591 10.8712L166.491 10.1312L167.961 11.7712V18.7112L166.961 19.5612L167.071 19.7312L168.151 18.8212L170.461 21.4212L173.751 18.6212ZM168.901 2.82117L170.901 5.02117L168.361 7.22116L166.361 5.08117L168.901 2.82117Z" fill="#035C67"/>
<path d="M155.071 15.9513V8.21125L152.701 9.21125C152.286 10.231 152.111 11.333 152.191 12.4313C152.331 13.9155 152.901 15.3266 153.831 16.4912L155.071 15.9513ZM161.841 0.03125C162.645 0.118577 163.407 0.430497 164.041 0.931252C164.381 1.28024 164.623 1.71269 164.742 2.18497C164.862 2.65726 164.854 3.15267 164.721 3.62125C164.635 4.02264 164.465 4.40122 164.222 4.73214C163.979 5.06305 163.668 5.33879 163.311 5.54125C162.858 5.89379 162.305 6.09338 161.731 6.11125V9.83125L163.421 11.3013L161.731 12.7713V17.7713C162.827 16.861 163.714 15.7252 164.331 14.4412C164.331 14.4412 164.381 14.3312 164.491 14.0412C164.612 15.2482 164.379 16.4641 163.821 17.5412C163.246 18.8501 162.254 19.9327 161.001 20.6213C159.311 21.6547 157.293 22.0118 155.351 21.6213C154.279 21.4399 153.257 21.0344 152.353 20.4313C151.448 19.8282 150.681 19.041 150.101 18.1213C149.218 16.7007 148.77 15.0532 148.811 13.3812C148.861 9.94125 151.511 7.00125 154.561 5.87125C154.881 5.73486 155.217 5.64074 155.561 5.59125C155.331 5.76125 155.051 5.93125 154.711 6.16125C153.732 6.88084 152.971 7.85668 152.511 8.98125L158.321 6.55125V14.5513L153.701 16.7513C154.651 17.7983 155.92 18.5015 157.311 18.7513C158.671 18.92 160.047 18.6277 161.221 17.9212V12.7313L159.531 11.2612L161.221 9.79125V6.07125C160.194 5.9201 159.176 5.71313 158.171 5.45125C157.101 5.22125 153.601 4.26125 153.041 4.15125C152.479 4.03265 151.892 4.13278 151.401 4.43125C151.183 4.62541 151.021 4.8742 150.931 5.15194C150.842 5.42969 150.828 5.72633 150.891 6.01125C151.001 6.27723 151.177 6.51112 151.401 6.69125C151.198 6.66845 151.005 6.59256 150.841 6.47125C150.476 6.25495 150.171 5.95013 149.954 5.58488C149.737 5.21963 149.616 4.8057 149.601 4.38125C149.576 3.79919 149.696 3.21996 149.951 2.69609C150.206 2.17221 150.587 1.72027 151.061 1.38125C151.984 0.745764 153.11 0.47499 154.221 0.62125C155.971 0.84125 158.281 1.80125 160.371 2.31125C161.024 2.52915 161.733 2.50789 162.371 2.25125C162.484 2.19354 162.584 2.11258 162.663 2.01369C162.743 1.9148 162.8 1.80021 162.833 1.67745C162.865 1.55469 162.87 1.42653 162.85 1.30137C162.829 1.17622 162.781 1.0569 162.711 0.951252C162.261 0.221252 161.411 0.221252 160.711 0.111252C161.123 0.0651719 161.537 0.0451307 161.951 0.0512505" fill="#035C67"/>
<path d="M205.748 9.2912V12.9612L207.328 14.0312C208.781 12.8854 210.037 11.5107 211.048 9.9612C211.048 9.9612 209.808 11.6212 208.218 11.0912C207.324 10.796 206.576 10.1699 206.128 9.3412L205.748 9.2912ZM203.018 18.9412C203.357 18.4139 203.835 17.9914 204.401 17.7211C204.966 17.4509 205.595 17.3435 206.218 17.4112C206.845 17.5858 207.426 17.8932 207.923 18.3125C208.42 18.7318 208.821 19.2532 209.098 19.8412V15.2112L207.458 14.0812C205.988 15.5512 203.278 17.6412 202.938 18.9412H203.018ZM204.938 22.4412C204.364 22.4424 203.807 22.2434 203.364 21.8783C202.92 21.5133 202.618 21.0051 202.508 20.4412C202.118 18.8012 203.298 17.7312 205.048 15.9812L202.958 14.1212V10.6212C202.958 10.6212 204.488 9.8912 205.668 9.1512L208.118 7.6212C208.603 8.19323 209.292 8.55232 210.038 8.6212C211.618 8.5012 211.558 7.2612 211.508 6.9812C211.788 7.4312 212.508 8.8412 209.698 11.9812L211.958 13.7312V18.3212C210.175 19.2332 208.457 20.2691 206.818 21.4212C206.818 21.4212 205.408 19.7312 204.228 20.5212C203.438 21.1412 203.828 22.0412 204.958 22.4412" fill="#035C67"/>
<path d="M113.759 17.2413L116.689 19.7813V12.0013L113.759 9.40126V17.2413ZM120.019 10.8713L121.019 9.96126L121.189 10.1313L119.949 11.0413V18.3213L117.009 20.0113L114.319 21.6213L110.879 18.8013L109.979 19.5913L109.809 19.4213L110.989 18.6313V10.7313H110.819L113.819 9.26126L116.419 7.79126L120.019 10.8713Z" fill="#035C67"/>
<path d="M126.849 10.1312L129.049 7.93124C129.215 8.09508 129.408 8.23023 129.619 8.33124C129.839 8.43473 130.08 8.48838 130.324 8.48838C130.567 8.48838 130.808 8.43473 131.029 8.33124C131.31 8.20083 131.56 8.00957 131.759 7.77124C131.818 8.44972 131.679 9.13076 131.36 9.73226C131.04 10.3338 130.554 10.83 129.959 11.1612C129.378 11.3782 128.742 11.3978 128.149 11.2171C127.556 11.0363 127.04 10.6652 126.679 10.1612V18.0012L128.319 19.1912L129.499 18.2812L129.619 18.4512L125.999 21.3912L123.219 19.0512L122.219 19.9512L122.049 19.7812L123.299 18.4912V11.7712L122.389 10.3012L121.389 11.1512L121.219 10.9812L124.719 7.98124L126.849 10.1312Z" fill="#035C67"/>
<path d="M136.109 13.4112L140.169 7.71118C140.574 8.12009 141.082 8.41058 141.639 8.55118C142.073 8.60969 142.514 8.564 142.926 8.41792C143.338 8.27183 143.71 8.02955 144.009 7.71118C143.779 9.23118 143.009 10.9812 141.359 11.2612C140.345 11.3356 139.339 11.0369 138.529 10.4212L138.249 10.8112L143.899 19.0512L145.019 18.0512L145.189 18.2212L141.299 21.4912L136.109 13.4112Z" fill="#035C67"/>
<path d="M132.951 5.73116C132.951 4.49116 132.211 3.73116 131.541 3.81116L135.771 0.811157V17.8112L137.121 18.9912L138.031 18.2612L138.201 18.4312L134.641 21.4312L132.221 19.2812L131.221 20.1212L131.051 19.9512L132.971 18.5412V5.73116H132.951Z" fill="#035C67"/>
<path d="M104.28 10.5312C103.953 10.8686 103.509 11.0688 103.04 11.0912C102.82 11.0978 102.602 11.0501 102.405 10.9524C102.208 10.8548 102.038 10.7101 101.91 10.5312V12.8412C102.038 12.6623 102.208 12.5176 102.405 12.4199C102.602 12.3223 102.82 12.2746 103.04 12.2812C103.27 12.28 103.498 12.3244 103.711 12.412C103.924 12.4995 104.117 12.6284 104.28 12.7912V10.5312ZM104.16 5.53119L102.75 4.06119L101.91 4.69119V10.1612C102.071 10.3473 102.269 10.4983 102.491 10.6049C102.713 10.7116 102.954 10.7716 103.2 10.7812C103.412 10.8071 103.627 10.7597 103.809 10.647C103.991 10.5343 104.129 10.3629 104.2 10.1612L104.16 5.53119ZM101.91 21.0012C102.217 21.0765 102.536 21.0851 102.847 21.0265C103.157 20.9678 103.452 20.8433 103.71 20.6612C103.948 20.484 104.122 20.2332 104.203 19.9475C104.284 19.6619 104.269 19.3574 104.16 19.0812V13.2412C104.08 13.0454 103.94 12.8799 103.761 12.7686C103.581 12.6572 103.371 12.6056 103.16 12.6212C102.914 12.6308 102.673 12.6908 102.451 12.7975C102.229 12.9041 102.031 13.0551 101.87 13.2412L101.91 21.0012ZM95.7 5.42119C95.7 4.29119 95.19 3.61119 94.46 3.61119C93.33 3.61119 93.05 5.14119 93.05 5.14119C93.0037 4.72505 93.0556 4.30387 93.2015 3.9114C93.3474 3.51893 93.5832 3.16609 93.89 2.88119C94.291 2.41214 94.8162 2.06573 95.4052 1.88176C95.9943 1.69779 96.6233 1.68373 97.22 1.84119C97.9034 1.94926 98.5251 2.29978 98.9713 2.82862C99.4176 3.35747 99.6585 4.0293 99.65 4.72119V20.6212C99.946 20.6971 100.247 20.7539 100.55 20.7912C100.818 20.8508 101.082 20.9276 101.34 21.0212V1.89119H101.91V4.49119L105.35 1.72119L107.95 3.98119L109.19 2.98119L109.3 3.15119L108.06 4.22119V18.9412C108.097 19.4227 108.006 19.9053 107.797 20.3407C107.588 20.776 107.269 21.1487 106.87 21.4212C104.78 22.6112 102.25 21.2512 99.99 20.9112C98.29 20.6912 95.7 20.3512 94.99 21.9112C94.8435 22.2205 94.821 22.5741 94.927 22.8995C95.033 23.2249 95.2595 23.4974 95.56 23.6612C97.08 24.6612 103.85 22.0312 106.17 23.0412C106.52 23.1502 106.844 23.3277 107.125 23.5634C107.405 23.799 107.636 24.0882 107.803 24.414C107.971 24.7398 108.072 25.0956 108.101 25.4608C108.129 25.8261 108.085 26.1933 107.97 26.5412C107.41 28.4612 104.87 28.8512 104.87 28.8512C105.201 28.6805 105.468 28.4068 105.63 28.0714C105.793 27.736 105.842 27.3569 105.77 26.9912C105.6 26.4312 105.21 26.2612 103.85 26.3712C100.97 26.7112 97.47 28.0612 95.16 27.1012C94.5319 26.7961 94.0073 26.3129 93.6517 25.7119C93.2961 25.1109 93.1251 24.4186 93.16 23.7212C93.21 21.7212 95.69 20.8412 95.69 20.8412V13.1812C95.69 12.9012 94.34 12.9612 94 13.5212C93.55 14.3712 94.57 14.7612 94.57 14.7612C94.2939 14.777 94.0178 14.7294 93.763 14.6219C93.5082 14.5144 93.2814 14.35 93.1 14.1412C92.7579 13.7447 92.5607 13.2437 92.5407 12.7205C92.5208 12.1972 92.6791 11.6826 92.99 11.2612C93.3148 10.8421 93.7342 10.5058 94.2139 10.2799C94.6936 10.0539 95.22 9.94473 95.75 9.96119L95.7 5.42119Z" fill="#035C67"/>
</svg>
