<svg width="151" height="28" viewBox="0 0 151 28" fill="none" xmlns="http://www.w3.org/2000/svg">
<path d="M13.7396 27.28C21.2728 27.28 27.3796 21.1732 27.3796 13.64C27.3796 6.10684 21.2728 0 13.7396 0C6.20644 0 0.0996094 6.10684 0.0996094 13.64C0.0996094 21.1732 6.20644 27.28 13.7396 27.28Z" fill="#035C67"/>
<path d="M33.4199 15.7299V6.03992H37.7399V14.4499C37.7399 16.1099 37.9299 17.7299 40.1199 17.7299C42.3099 17.7299 42.4899 16.1099 42.4899 14.4499V6.03992H46.8199V15.6899C46.8199 19.4399 44.4399 21.4799 40.1199 21.4799C35.7999 21.4799 33.4199 19.4399 33.4199 15.7299Z" fill="#035C67"/>
<path d="M47.9609 19.3L50.0509 16.4C50.4819 16.9356 51.0247 17.3707 51.6413 17.6747C52.258 17.9787 52.9336 18.1443 53.6209 18.16C54.7609 18.16 55.4209 17.68 55.4209 16.78C55.4209 15.88 54.4209 15.4 52.8109 14.93C50.6209 14.26 48.6709 13.12 48.6709 10.51C48.6709 7.64998 51.0509 5.70998 54.3809 5.70998C56.2667 5.61773 58.1175 6.24299 59.5609 7.45998L57.5609 10.36C57.1834 9.93877 56.7207 9.60243 56.2036 9.37317C55.6865 9.14391 55.1266 9.02694 54.5609 9.02998C53.4209 9.02998 52.9509 9.50998 52.9509 10.08C52.9509 11.03 54.0909 11.27 55.3209 11.69C57.8009 12.45 59.7009 13.6 59.7009 16.4C59.7009 19.2 57.6109 21.48 53.8009 21.48C52.7312 21.5259 51.663 21.3567 50.6599 20.9822C49.6567 20.6077 48.7389 20.0357 47.9609 19.3Z" fill="#035C67"/>
<path d="M65.5506 6.03992H70.3006L75.9506 21.1999H71.4406L70.7306 19.0099H65.0206L64.3106 21.1999H59.8906L65.5506 6.03992ZM69.6306 15.5899L68.4406 11.9299C68.2101 11.1841 68.0362 10.4219 67.9206 9.64992H67.7806C67.665 10.4219 67.4912 11.1841 67.2606 11.9299L66.0706 15.5899H69.6306Z" fill="#035C67"/>
<path d="M82.2209 9.55992H78.4609V6.03992H90.3009V9.55992H86.5409V21.1999H82.2209V9.55992Z" fill="#035C67"/>
<path d="M90.5898 13.64C90.5898 9.89 93.2499 5.75 98.9099 5.75C104.57 5.75 107.22 9.94 107.22 13.64C107.22 17.34 104.56 21.48 98.8998 21.48C93.2398 21.48 90.5898 17.4 90.5898 13.64ZM102.81 13.64C102.837 13.1146 102.756 12.5892 102.573 12.0958C102.391 11.6024 102.11 11.1514 101.747 10.77C101.385 10.3887 100.949 10.0851 100.465 9.87757C99.9816 9.67008 99.461 9.56309 98.9348 9.56309C98.4087 9.56309 97.8881 9.67008 97.4047 9.87757C96.9212 10.0851 96.485 10.3887 96.1225 10.77C95.7601 11.1514 95.4789 11.6024 95.2963 12.0958C95.1136 12.5892 95.0331 13.1146 95.0598 13.64C95.0331 14.1654 95.1136 14.6908 95.2963 15.1842C95.4789 15.6776 95.7601 16.1286 96.1225 16.51C96.485 16.8913 96.9212 17.1949 97.4047 17.4024C97.8881 17.6099 98.4087 17.7169 98.9348 17.7169C99.461 17.7169 99.9816 17.6099 100.465 17.4024C100.949 17.1949 101.385 16.8913 101.747 16.51C102.11 16.1286 102.391 15.6776 102.573 15.1842C102.756 14.6908 102.837 14.1654 102.81 13.64Z" fill="#035C67"/>
<path d="M108.801 6.03992H114.401C119.771 6.03992 122.821 8.88992 122.821 13.6399C122.821 18.3899 119.681 21.2499 114.401 21.2499H108.801V6.03992ZM113.221 17.7299H114.221C117.021 17.7299 118.501 16.3999 118.501 13.6399C118.501 10.8799 117.021 9.55992 114.221 9.55992H113.221V17.7299Z" fill="#035C67"/>
<path d="M127.849 6.03992H132.609L138.219 21.1999H133.709L132.989 19.0099H127.289L126.579 21.1999H122.219L127.849 6.03992ZM131.939 15.5899L130.749 11.9299C130.513 11.1854 130.34 10.4228 130.229 9.64992H130.089C129.974 10.4231 129.797 11.1856 129.559 11.9299L128.379 15.5899H131.939Z" fill="#035C67"/>
<path d="M140.349 15.84L134.699 6.09998H139.449L141.449 9.84998C141.965 10.7279 142.365 11.6691 142.639 12.65H142.739C142.991 11.6614 143.392 10.7172 143.929 9.84998L145.929 6.09998H150.539L144.959 15.84V21.26H140.399V15.84H140.349Z" fill="#035C67"/>
</svg>
