<svg width="110" height="110" viewBox="0 0 110 110" fill="none" xmlns="http://www.w3.org/2000/svg">
<path d="M77 110H33C14.7767 110 0 95.2233 0 77V33C0 14.7767 14.7767 0 33 0H77C95.2233 0 110 14.7767 110 33V77C110 95.2233 95.2233 110 77 110Z" fill="#F3F3F3"/>
<path d="M86.1666 37.5967H24.3333V32.5967V32.0967H23.8333H18.3333H17.8333V32.5967V38.0967V76.5967C17.8333 79.907 20.523 82.5967 23.8333 82.5967H86.1666C89.477 82.5967 92.1666 79.907 92.1666 76.5967V43.5967C92.1666 40.2864 89.477 37.5967 86.1666 37.5967Z" fill="url(#paint0_linear_2829_27382)" stroke="#1D252C"/>
<path d="M84.3333 37.5967H84.8333V37.0967V32.0967C84.8333 29.0184 82.0977 26.5967 78.8333 26.5967H23.8333C20.5592 26.5967 17.8333 29.0189 17.8333 32.0967C17.8333 35.1749 20.5689 37.5967 23.8333 37.5967H84.3333Z" fill="#1D252C" stroke="#1D252C"/>
<path d="M83.8333 60.0968C83.8333 61.8457 82.4156 63.2635 80.6667 63.2635C78.9178 63.2635 77.5 61.8457 77.5 60.0968C77.5 58.3479 78.9178 56.9302 80.6667 56.9302C82.4156 56.9302 83.8333 58.3479 83.8333 60.0968Z" fill="#1D252C" stroke="#1D252C"/>
<defs>
<linearGradient id="paint0_linear_2829_27382" x1="55" y1="32.5967" x2="55" y2="82.0967" gradientUnits="userSpaceOnUse">
<stop stop-color="#A95EDB"/>
<stop offset="1" stop-color="#D698FF"/>
</linearGradient>
</defs>
</svg>
