<svg width="110" height="110" viewBox="0 0 110 110" fill="none" xmlns="http://www.w3.org/2000/svg">
<path d="M77 110H33C14.7767 110 0 95.2233 0 77V33C0 14.7767 14.7767 0 33 0H77C95.2233 0 110 14.7767 110 33V77C110 95.2233 95.2233 110 77 110Z" fill="#F3F3F3"/>
<mask id="path-2-outside-1_2829_27349" maskUnits="userSpaceOnUse" x="17.3334" y="33.2568" width="76" height="61" fill="black">
<rect fill="white" x="17.3334" y="33.2568" width="76" height="61"/>
<path fill-rule="evenodd" clip-rule="evenodd" d="M91.6667 52.5902V45.2562C91.6667 45.0812 91.6626 44.9072 91.6545 44.7342C91.3819 38.8996 86.569 34.2568 80.6667 34.2568H29.3334C23.2559 34.2568 18.3334 39.1793 18.3334 45.2568V52.6204C18.3497 58.684 23.2659 63.5902 29.3333 63.5902H80.6667C86.7442 63.5902 91.6667 58.6677 91.6667 52.5902ZM91.6667 63.6154V67.2562C91.6667 73.3337 86.7442 78.2562 80.6667 78.2562H29.3333C23.2659 78.2562 18.3497 73.35 18.3334 67.2864V67.2568V63.6154C21.1545 66.4302 25.0452 68.1735 29.3333 68.1735H80.6667C84.9549 68.1735 88.8455 66.4302 91.6667 63.6154ZM91.6667 81.9229V78.2813C88.8455 81.0962 84.9549 82.8395 80.6667 82.8395H29.3333C25.0452 82.8395 21.1545 81.0962 18.3334 78.2814V81.9229C18.3334 88.0004 23.2559 92.9229 29.3334 92.9229H80.6667C86.7442 92.9229 91.6667 88.0004 91.6667 81.9229Z"/>
</mask>
<path fill-rule="evenodd" clip-rule="evenodd" d="M91.6667 52.5902V45.2562C91.6667 45.0812 91.6626 44.9072 91.6545 44.7342C91.3819 38.8996 86.569 34.2568 80.6667 34.2568H29.3334C23.2559 34.2568 18.3334 39.1793 18.3334 45.2568V52.6204C18.3497 58.684 23.2659 63.5902 29.3333 63.5902H80.6667C86.7442 63.5902 91.6667 58.6677 91.6667 52.5902ZM91.6667 63.6154V67.2562C91.6667 73.3337 86.7442 78.2562 80.6667 78.2562H29.3333C23.2659 78.2562 18.3497 73.35 18.3334 67.2864V67.2568V63.6154C21.1545 66.4302 25.0452 68.1735 29.3333 68.1735H80.6667C84.9549 68.1735 88.8455 66.4302 91.6667 63.6154ZM91.6667 81.9229V78.2813C88.8455 81.0962 84.9549 82.8395 80.6667 82.8395H29.3333C25.0452 82.8395 21.1545 81.0962 18.3334 78.2814V81.9229C18.3334 88.0004 23.2559 92.9229 29.3334 92.9229H80.6667C86.7442 92.9229 91.6667 88.0004 91.6667 81.9229Z" fill="#1D252C"/>
<path d="M91.6545 44.7342L92.6534 44.6876L92.6534 44.6876L91.6545 44.7342ZM18.3334 52.6204H17.3334L17.3334 52.6231L18.3334 52.6204ZM91.6667 63.6154H92.6667V61.205L90.9604 62.9075L91.6667 63.6154ZM18.3334 67.2864H17.3334L17.3334 67.2891L18.3334 67.2864ZM18.3334 63.6154L19.0397 62.9075L17.3334 61.2051V63.6154H18.3334ZM91.6667 78.2813H92.6667V75.871L90.9604 77.5734L91.6667 78.2813ZM18.3334 78.2814L19.0397 77.5735L17.3334 75.8711V78.2814H18.3334ZM90.6667 45.2562V52.5902H92.6667V45.2562H90.6667ZM90.6556 44.7808C90.663 44.9383 90.6667 45.0968 90.6667 45.2562H92.6667C92.6667 45.0657 92.6622 44.8761 92.6534 44.6876L90.6556 44.7808ZM80.6667 35.2568C86.0324 35.2568 90.4078 39.4774 90.6556 44.7809L92.6534 44.6876C92.356 38.3219 87.1056 33.2568 80.6667 33.2568V35.2568ZM29.3334 35.2568H80.6667V33.2568H29.3334V35.2568ZM19.3334 45.2568C19.3334 39.7316 23.8082 35.2568 29.3334 35.2568V33.2568C22.7036 33.2568 17.3334 38.6271 17.3334 45.2568H19.3334ZM19.3334 52.6204V45.2568H17.3334V52.6204H19.3334ZM29.3333 62.5902C23.8173 62.5902 19.3482 58.1302 19.3334 52.6177L17.3334 52.6231C17.3511 59.2378 22.7145 64.5902 29.3333 64.5902V62.5902ZM80.6667 62.5902H29.3333V64.5902H80.6667V62.5902ZM90.6667 52.5902C90.6667 58.1154 86.1919 62.5902 80.6667 62.5902V64.5902C87.2965 64.5902 92.6667 59.22 92.6667 52.5902H90.6667ZM90.6667 63.6154V67.2562H92.6667V63.6154H90.6667ZM90.6667 67.2562C90.6667 72.7814 86.1919 77.2562 80.6667 77.2562V79.2562C87.2965 79.2562 92.6667 73.886 92.6667 67.2562H90.6667ZM80.6667 77.2562H29.3333V79.2562H80.6667V77.2562ZM29.3333 77.2562C23.8173 77.2562 19.3482 72.7962 19.3334 67.2837L17.3334 67.2891C17.3511 73.9038 22.7145 79.2562 29.3333 79.2562V77.2562ZM19.3334 67.2864V67.2568H17.3334V67.2864H19.3334ZM19.3334 67.2568V63.6154H17.3334V67.2568H19.3334ZM17.6271 64.3233C20.6273 67.3167 24.7686 69.1735 29.3333 69.1735V67.1735C25.3217 67.1735 21.6818 65.5437 19.0397 62.9075L17.6271 64.3233ZM29.3333 69.1735H80.6667V67.1735H29.3333V69.1735ZM80.6667 69.1735C85.2314 69.1735 89.3728 67.3167 92.373 64.3233L90.9604 62.9075C88.3182 65.5436 84.6783 67.1735 80.6667 67.1735V69.1735ZM90.6667 78.2813V81.9229H92.6667V78.2813H90.6667ZM80.6667 83.8395C85.2314 83.8395 89.3728 81.9827 92.373 78.9892L90.9604 77.5734C88.3182 80.2096 84.6783 81.8395 80.6667 81.8395V83.8395ZM29.3333 83.8395H80.6667V81.8395H29.3333V83.8395ZM17.6271 78.9893C20.6273 81.9827 24.7686 83.8395 29.3333 83.8395V81.8395C25.3217 81.8395 21.6818 80.2097 19.0397 77.5735L17.6271 78.9893ZM19.3334 81.9229V78.2814H17.3334V81.9229H19.3334ZM29.3334 91.9229C23.8082 91.9229 19.3334 87.4481 19.3334 81.9229H17.3334C17.3334 88.5526 22.7036 93.9229 29.3334 93.9229V91.9229ZM80.6667 91.9229H29.3334V93.9229H80.6667V91.9229ZM90.6667 81.9229C90.6667 87.4481 86.1919 91.9229 80.6667 91.9229V93.9229C87.2965 93.9229 92.6667 88.5526 92.6667 81.9229H90.6667Z" fill="#1D252C" mask="url(#path-2-outside-1_2829_27349)"/>
<path d="M29.3333 64.0894H80.6667C87.0203 64.0894 92.1667 58.943 92.1667 52.5894V30.5894C92.1667 24.2357 87.0203 19.0894 80.6667 19.0894H29.3333C22.9797 19.0894 17.8333 24.2357 17.8333 30.5894V52.5894C17.8333 58.943 22.9797 64.0894 29.3333 64.0894Z" fill="url(#paint0_linear_2829_27349)" stroke="#1D252C"/>
<path d="M55 58.5894C64.3888 58.5894 72 50.9782 72 41.5894C72 32.2005 64.3888 24.5894 55 24.5894C45.6112 24.5894 38 32.2005 38 41.5894C38 50.9782 45.6112 58.5894 55 58.5894Z" fill="white" stroke="#1D252C"/>
<mask id="path-6-inside-2_2829_27349" fill="white">
<path fill-rule="evenodd" clip-rule="evenodd" d="M52.9375 52.5894C52.9375 53.726 53.8633 54.6519 55 54.6519C56.1366 54.6519 57.0625 53.726 57.0625 52.5894V50.9845H58.6667C61.8201 50.9845 64.3959 48.4179 64.3959 45.2554C64.3959 42.0929 61.8292 39.5262 58.6667 39.5262H57.0625V36.3179H62.3334C63.4701 36.3179 64.3959 35.392 64.3959 34.2554C64.3959 33.1187 63.4701 32.1929 62.3334 32.1929H57.0625V30.5894C57.0625 29.4527 56.1366 28.5269 55 28.5269C53.8633 28.5269 52.9375 29.4527 52.9375 30.5894V32.1929H51.3334C48.1709 32.1929 45.6042 34.7595 45.6042 37.922C45.6042 41.0845 48.1709 43.6512 51.3334 43.6512H52.9375V46.8595H47.6667C46.5301 46.8595 45.6042 47.7854 45.6042 48.922C45.6042 50.0587 46.5301 50.9845 47.6667 50.9845H52.9375V52.5894ZM57.0625 46.8595H58.6667C59.5467 46.8595 60.2709 46.1354 60.2709 45.2554C60.2709 44.3754 59.5467 43.6512 58.6667 43.6512H57.0625V46.8595ZM52.9375 39.5262V36.3179H51.3334C50.4534 36.3179 49.7292 37.042 49.7292 37.922C49.7292 38.802 50.4534 39.5262 51.3334 39.5262H52.9375Z"/>
</mask>
<path fill-rule="evenodd" clip-rule="evenodd" d="M52.9375 52.5894C52.9375 53.726 53.8633 54.6519 55 54.6519C56.1366 54.6519 57.0625 53.726 57.0625 52.5894V50.9845H58.6667C61.8201 50.9845 64.3959 48.4179 64.3959 45.2554C64.3959 42.0929 61.8292 39.5262 58.6667 39.5262H57.0625V36.3179H62.3334C63.4701 36.3179 64.3959 35.392 64.3959 34.2554C64.3959 33.1187 63.4701 32.1929 62.3334 32.1929H57.0625V30.5894C57.0625 29.4527 56.1366 28.5269 55 28.5269C53.8633 28.5269 52.9375 29.4527 52.9375 30.5894V32.1929H51.3334C48.1709 32.1929 45.6042 34.7595 45.6042 37.922C45.6042 41.0845 48.1709 43.6512 51.3334 43.6512H52.9375V46.8595H47.6667C46.5301 46.8595 45.6042 47.7854 45.6042 48.922C45.6042 50.0587 46.5301 50.9845 47.6667 50.9845H52.9375V52.5894ZM57.0625 46.8595H58.6667C59.5467 46.8595 60.2709 46.1354 60.2709 45.2554C60.2709 44.3754 59.5467 43.6512 58.6667 43.6512H57.0625V46.8595ZM52.9375 39.5262V36.3179H51.3334C50.4534 36.3179 49.7292 37.042 49.7292 37.922C49.7292 38.802 50.4534 39.5262 51.3334 39.5262H52.9375Z" fill="#67D7A5"/>
<path d="M57.0625 50.9845V49.9845H56.0625V50.9845H57.0625ZM57.0625 39.5262H56.0625V40.5262H57.0625V39.5262ZM57.0625 36.3179V35.3179H56.0625V36.3179H57.0625ZM57.0625 32.1929H56.0625V33.1929H57.0625V32.1929ZM52.9375 32.1929V33.1929H53.9375V32.1929H52.9375ZM52.9375 43.6512H53.9375V42.6512H52.9375V43.6512ZM52.9375 46.8595V47.8595H53.9375V46.8595H52.9375ZM52.9375 50.9845H53.9375V49.9845H52.9375V50.9845ZM57.0625 46.8595H56.0625V47.8595H57.0625V46.8595ZM57.0625 43.6512V42.6512H56.0625V43.6512H57.0625ZM52.9375 39.5262V40.5262H53.9375V39.5262H52.9375ZM52.9375 36.3179H53.9375V35.3179H52.9375V36.3179ZM55 53.6519C54.4156 53.6519 53.9375 53.1737 53.9375 52.5894H51.9375C51.9375 54.2783 53.311 55.6519 55 55.6519V53.6519ZM56.0625 52.5894C56.0625 53.1737 55.5844 53.6519 55 53.6519V55.6519C56.6889 55.6519 58.0625 54.2783 58.0625 52.5894H56.0625ZM56.0625 50.9845V52.5894H58.0625V50.9845H56.0625ZM58.6667 49.9845H57.0625V51.9845H58.6667V49.9845ZM63.3959 45.2554C63.3959 47.8645 61.2688 49.9845 58.6667 49.9845V51.9845C62.3713 51.9845 65.3959 48.9712 65.3959 45.2554H63.3959ZM58.6667 40.5262C61.2769 40.5262 63.3959 42.6452 63.3959 45.2554H65.3959C65.3959 41.5406 62.3815 38.5262 58.6667 38.5262V40.5262ZM57.0625 40.5262H58.6667V38.5262H57.0625V40.5262ZM56.0625 36.3179V39.5262H58.0625V36.3179H56.0625ZM62.3334 35.3179H57.0625V37.3179H62.3334V35.3179ZM63.3959 34.2554C63.3959 34.8398 62.9178 35.3179 62.3334 35.3179V37.3179C64.0223 37.3179 65.3959 35.9443 65.3959 34.2554H63.3959ZM62.3334 33.1929C62.9178 33.1929 63.3959 33.671 63.3959 34.2554H65.3959C65.3959 32.5664 64.0223 31.1929 62.3334 31.1929V33.1929ZM57.0625 33.1929H62.3334V31.1929H57.0625V33.1929ZM56.0625 30.5894V32.1929H58.0625V30.5894H56.0625ZM55 29.5269C55.5844 29.5269 56.0625 30.005 56.0625 30.5894H58.0625C58.0625 28.9004 56.6889 27.5269 55 27.5269V29.5269ZM53.9375 30.5894C53.9375 30.005 54.4156 29.5269 55 29.5269V27.5269C53.311 27.5269 51.9375 28.9004 51.9375 30.5894H53.9375ZM53.9375 32.1929V30.5894H51.9375V32.1929H53.9375ZM51.3334 33.1929H52.9375V31.1929H51.3334V33.1929ZM46.6042 37.922C46.6042 35.3118 48.7232 33.1929 51.3334 33.1929V31.1929C47.6186 31.1929 44.6042 34.2073 44.6042 37.922H46.6042ZM51.3334 42.6512C48.7232 42.6512 46.6042 40.5323 46.6042 37.922H44.6042C44.6042 41.6368 47.6186 44.6512 51.3334 44.6512V42.6512ZM52.9375 42.6512H51.3334V44.6512H52.9375V42.6512ZM53.9375 46.8595V43.6512H51.9375V46.8595H53.9375ZM47.6667 47.8595H52.9375V45.8595H47.6667V47.8595ZM46.6042 48.922C46.6042 48.3377 47.0823 47.8595 47.6667 47.8595V45.8595C45.9778 45.8595 44.6042 47.2331 44.6042 48.922H46.6042ZM47.6667 49.9845C47.0823 49.9845 46.6042 49.5064 46.6042 48.922H44.6042C44.6042 50.611 45.9778 51.9845 47.6667 51.9845V49.9845ZM52.9375 49.9845H47.6667V51.9845H52.9375V49.9845ZM53.9375 52.5894V50.9845H51.9375V52.5894H53.9375ZM57.0625 47.8595H58.6667V45.8595H57.0625V47.8595ZM58.6667 47.8595C60.099 47.8595 61.2709 46.6877 61.2709 45.2554H59.2709C59.2709 45.5831 58.9944 45.8595 58.6667 45.8595V47.8595ZM61.2709 45.2554C61.2709 43.8231 60.099 42.6512 58.6667 42.6512V44.6512C58.9944 44.6512 59.2709 44.9277 59.2709 45.2554H61.2709ZM58.6667 42.6512H57.0625V44.6512H58.6667V42.6512ZM56.0625 43.6512V46.8595H58.0625V43.6512H56.0625ZM53.9375 39.5262V36.3179H51.9375V39.5262H53.9375ZM52.9375 35.3179H51.3334V37.3179H52.9375V35.3179ZM51.3334 35.3179C49.9011 35.3179 48.7292 36.4898 48.7292 37.922H50.7292C50.7292 37.5943 51.0057 37.3179 51.3334 37.3179V35.3179ZM48.7292 37.922C48.7292 39.3543 49.9011 40.5262 51.3334 40.5262V38.5262C51.0057 38.5262 50.7292 38.2498 50.7292 37.922H48.7292ZM51.3334 40.5262H52.9375V38.5262H51.3334V40.5262Z" fill="#1D252C" mask="url(#path-6-inside-2_2829_27349)"/>
<defs>
<linearGradient id="paint0_linear_2829_27349" x1="55" y1="63.9995" x2="55" y2="19.9995" gradientUnits="userSpaceOnUse">
<stop stop-color="#00C9A7"/>
<stop offset="0.931307" stop-color="#99E4D7"/>
</linearGradient>
</defs>
</svg>
